<svg xmlns="http://www.w3.org/2000/svg" width="620" height="358" viewBox="0 0 620 358">
  <g fill="none">
    <rect width="620" height="357.682" fill="#F4F4F4"/>
    <g stroke="#979797" transform="translate(7 16)">
      <path d="M309.055296 78.415877C316.591892 97.0988631 337.029732 136.394314 359.264229 135.297017 373.918134 134.57383 458.757386 141.152889 464.783752 100.230181M302.298588 73.9983665C318.337886 217.759711 323.556706 135.255777 292.641274 246.298352 290.335934 254.578714 291.192115 263.637173 288.227802 271.70473 286.688047 275.895265 287.079978 262.624492 288.227802 258.309882 291.088597 247.5563 297.550583 237.942055 300.091852 227.108368 302.743612 215.803647 303.489488 204.067737 303.674955 192.457097 303.994888 172.428529 303.558645 152.334876 301.604718 132.399449 300.148373 117.54073 308.144294 91.0433137 293.471644 88.3552755 279.620155 85.8176746 294.041798 116.688866 291.816592 130.606258 288.496577 151.371056 280.653294 171.211375 276.915436 191.904908 276.283328 195.404384 276.897733 205.368285 278.849173 202.396496 282.708891 196.518649 281.087993 188.416509 283.535644 181.823193 288.568096 168.267114 296.326259 155.817987 301.19522 142.202223 306.597097 127.096192 303.809643 117.782974 302.298588 102.159996"/>
      <path d="M298.294613,127.566373 C301.917252,157.736041 300.418542,177.074585 321.47103,203.085309 C337.714582,223.154507 368.905697,253.712301 399.815849,255.27569 C405.628567,255.569688 410.654111,250.844557 415.541687,247.681671 C456.417739,221.229644 464.582288,202.736867 463.82257,155.870319 C463.101935,111.41471 473.914932,121.179326 458.163544,109.480767"/>
      <path d="M462.440517,113.209464 C444.485491,36.1138363 372.514501,29.656093 308.367112,51.2163087 C301.788664,53.4273537 294.844042,56.6789532 290.713224,62.2600849 C277.179143,80.5459274 295.265242,110.323746 299.813166,124.253241"/>
      <path d="M310.295163 70.6852337C346.573773 41.6961358 316.421373 56.4309805 379.540039 93.4672915 384.634379 96.4565111 372.952951 83.2906803 368.091174 79.9358194 359.220569 73.8146747 349.131 69.5783015 339.124919 65.5789104 334.861916 63.8750052 330.195973 62.9950764 325.605816 62.9545904 324.404301 62.9439928 322.399723 64.3888232 322.989583 65.4365937 332.456701 82.2530769 356.658938 95.9883887 368.506359 106.993071 374.841406 112.877489 392.690823 131.277689 385.335565 126.735244 367.980275 116.017 354.224708 100.295345 337.885051 88.0820274 278.577452 43.7516853 391.047804 124.892798 400.094534 123.701052 402.20009 123.423682 401.8811 119.077396 400.646218 117.348034 392.21354 105.538682 380.986818 95.9570595 372.095148 84.4899538 367.565015 78.6476856 353.51596 63.1771779 360.504096 65.5789104 386.235427 74.4224367 406.331438 114.212908 431.955709 105.063256 452.687648 97.6605084 399.379528 74.6095902 387.957486 55.7761359 382.560568 46.8773229 404.406652 68.5733659 413.198452 74.1349906 423.93492 80.9267975 433.985253 90.2898865 446.44168 92.7727859 450.364826 93.5547741 446.44168 84.7650995 446.44168 80.7612562M330.297974 167.466284C329.201034 188.55596 334.64829 131.464433 355.954125 145.788604 365.343806 152.1014 370.76049 162.908355 378.163673 171.46823M407.545113 172.988172C430.772289 137.238971 419.88082 135.056588 440.230969 166.498531M365.196254 196.459043C397.351918 215.923026 398.038844 220.331942 403.819823 187.760646M430.852341 272.945732C434.393735 267.008279 437.057444 260.4488 441.476524 255.133373 458.091031 235.14885 485.857167 222.059456 493.750007 197.290172 499.759192 178.432167 475.633402 159.624393 478.166355 139.993468 479.281601 131.350076 493.328171 149.093119 499.130348 155.591379 505.915603 163.190655 506.574745 186.851191 515.271371 181.549945 716.646564 58.7966706 334.650309 200.939301 535.547181 171.058358 545.994094 169.504508 539.098331 131.690978 544.652811 140.682281L551.546018 129.086316C558.83057 140.878169 553.557058 158.511764 562.3067 169.259475 583.435636 195.213417 609.313551 85.133161 551.409518 195.218041 548.926121 199.939379 571.496621 188.446796 566.856671 191.073779L583.412879 192.866969C469.387399 257.424356 565.101741 148.619587 461.200649 313.95002M74.7033349 155.870319C62.3728091 127.493318 73.8887916 98.3462465 88.4954355 132.262825 93.6179657 144.157323 96.9545905 156.745093 101.184168 168.986227M107.810064 163.185398C102.142048 146.428012 95.5296147 138.531699 99.8078017 122.317733 100.049781 121.400653 101.846762 121.011566 102.566222 121.628921 124.877963 140.774185 120.457842 139.112429 131.668976 166.225283M91.6690405 173.403737C86.6587604 205.658842 55.3435506 250.525515 101.326355 197.426796"/>
      <path d="M79.6684911,184.726454 C58.8633201,163.965954 37.2200498,156.687487 33.8730297,130.606258 C28.3704495,87.7281015 114.536554,18.3951154 158.84368,79.1046898 C182.658809,111.736154 202.321738,168.842354 188.640304,208.886137 C184.11236,222.138845 159.557227,262.798447 138.56787,254.996749 C121.91578,248.807204 100.872217,222.075468 92.9089077,213.855837"/>
      <path d="M114.70327 224.899613C125.094267 211.001912 129.008318 187.239891 145.876261 183.206512 146.410145 183.078852 160.491122 228.196102 143.669525 234.702387 137.075612 237.252792 130.081183 238.715273 123.120717 239.951027 106.818558 242.845296 109.176609 245.780177 105.876326 238.431085M67.3949435 288.549335C59.9462613 283.393675 52.9002411 277.599967 45.0488968 273.082356 37.486725 268.731133 17.4624197 269.868647 21.3207963 262.03858 25.611937 253.330274 43.0161324 268.445122 50.4235504 262.175204 55.2728227 258.070596 35.3256095 250.37827 40.0780531 246.161728 46.3520027 240.595251 64.3542438 257.564672 65.0460208 249.201613 65.8917634 238.977227 47.8393635 237.484018 41.4601069 229.453747 39.5450033 227.042996 48.7923435 233.490707 50.565737 230.97369 53.0899321 227.391043 20.3548098 175.193479 70.8415468 238.431085 73.5141647 241.778696 70.175887 247.202806 71.5297299 251.268051 82.6221835 284.57586 83.974422 271.287276 119.810613 286.613828 127.603784 289.946839 134.704186 294.712597 142.150972 298.761981M32.2179777 124.526489C42.5647342 84.3325238 30.1011647 127.046652 36.4949507 124.668805 41.4154021 122.838891 34.3860173 110.265856 39.5263691 109.201826 44.3515153 108.203043 41.6537537 126.308948 45.1853959 122.869922 49.6679614 118.504911 38.5195036 103.893943 44.7702111 104.095503 51.2690175 104.305063 44.5601351 118.898796 49.5988681 123.012239 53.3775208 126.096997 50.5494135 113.227467 50.014053 108.376389 49.573092 104.380697 49.876579 99.2454499 46.7039489 96.7804243 43.8556191 94.567369 47.2894478 110.700118 48.7684984 107.408636 51.7562096 100.759777 45.215172 89.110389 51.6691051 85.7309555 84.0415056 68.7799934 28.6294309 159.668471 55.9460781 80.3513841 57.2412569 76.5906807 65.0826506 93.0513366 61.8724158 90.7063474 55.4044362 85.9816644 52.456614 77.2527935 45.73708 72.8939889-38.8260514 18.0398634 63.4260467 91.3667012 61.7359166 91.5317843 56.2019953 92.072309 45.536549 79.4117712 46.4252631 84.9055186L34.5612129 86.8353331C35.3772663 91.8799148 43.11589 92.6303739 47.9438161 94.2927283 56.2021719 97.1362504 66.8485862 94.5228041 73.4634677 100.230181 78.9332125 104.949524 56.8506841 92.4409001 51.9421034 97.7424852 47.6130406 102.418153 63.7846148 102.618763 70.011177 103.958879 73.7424492 104.761944 77.7400125 104.949223 81.4600424 104.095503 82.6450166 103.82356 84.2585287 101.609179 83.257281 100.918994 25.7950068 61.3088206 88.9796532 120.267996 94.0122758 109.065202 100.382599 94.8846391 68.3278503 84.6361229 69.8746779 69.1652913 71.0565362 57.344755 85.4788322 100.193555 95.5308287 93.8771636 105.319403 87.7262989 85.0756744 71.2342705 74.7033349 66.1310992 62.829258 60.2890759 94.7802971 92.0085824 88.3589364 98.8468628 81.9352733 105.687595 58.099384 97.0696227 56.0825773 94.1561043 53.5632871 90.5166885 60.5041554 86.0647343 64.2213385 83.664517 68.0441773 81.1960769 73.3037569 82.1989358 77.461755 80.3513841 83.2493414 77.7797464 89.4289327 65.905581 93.7392775 70.5486096 285.63435 277.254655-203.206889-149.227698 105.461141 60.1936464 116.936376 67.9792249 99.0472906 87.6340138 100.0808 101.471183 100.450575 106.421923 107.03134 58.8373595 115.118455 59.4991408 142.930592 61.7750515 57.3415412 152.075488 129.740926 65.2999696 131.956389 62.6445878 128.876298 72.3204179 127.255504 75.3759922 124.84033 79.9291558 121.420499 83.9255026 117.876875 87.6664626 116.296801 89.3345273 114.305193 90.8214802 112.081349 91.3951603 108.063433 92.4316534 103.720201 93.2706222 99.6713026 92.3629138 91.955083 90.6330418 82.7931578 89.631516 77.5982542 83.664517 73.3719807 78.8101112 77.7324622 70.4719732 75.3915181 64.4745328 73.8354831 60.48801 73.5650796 73.3239629 75.1185198 77.3114994 76.6578628 81.2628497 80.8387105 77.3166168 87.8072524 65.0267216 90.7285311 59.8746812 92.5011696 43.039501 94.5639598 48.5919887 98.4107387 58.946504 83.4145718 78.6429385 94.0122758 81.7290098 104.882585 84.8944644 104.383086 48.3018023 114.015087 54.2561935L121.05048 51.7684975C124.795715 54.0837581 129.531436 67.1162507 128.085874 62.9545904L129.598739 74.2716146C127.623862 68.5861006 120.133998 54.8224448 125.879137 56.6015728 134.701028 59.3334949 151.793628 75.6530724 142.981342 78.415877L135.672951 73.3095537C133.594269 73.9612566 131.734467 83.2281327 136.361134 83.937765 147.400613 85.6309866 158.707721 85.1012137 169.740861 86.8353331 170.994071 87.0323047 173.555611 89.164117 172.362782 89.5962771 152.543337 96.7768343 111.286996 128.914901 111.808351 107.8242 112.345626 86.0894781 153.83915 95.203152 172.499281 84.0743891 178.742189 80.3511656 157.871477 83.4207383 150.704919 84.6265779 141.056415 86.2500276 132.187287 91.8220148 122.426847 92.4995379 25.8380585 99.2042698 504.142541 15.1578982 149.328552 70.9584817 135.141099 73.189702 96.1862478 85.5615689 110.153299 88.9074643L105.461141 92.4995379C112.213532 94.1171158 119.482045 94.1440388 126.288635 92.7727859 141.403346 89.7277821 156.991104 72.0663863 170.565543 79.3836305 173.967833 81.2176205 138.959735 122.754991 154.293708 128.534127 177.897857 137.430163 160.623671 90.4744818 179.671173 126.461996 181.789311 130.463912 193.133179 137.761662 188.776804 136.538018 178.435586 133.633318 151.561579 115.113937 160.498732 121.076732L142.844843 115.41822C155.317603 123.739942 194.607349 145.286059 182.844778 135.98583L200.225669 150.348431C185.134411 138.416332 152.905303 133.276691 155.25489 114.171525 157.415622 96.6019919 184.619002 134.877792 201.465536 140.266716 206.930826 142.014971 195.893794 130.081343 191.950409 125.909807 181.284624 114.626938 163.561117 108.609473 157.876811 94.1561043 154.825236 86.3969281 177.012098 107.313958 182.014409 100.645746 186.770724 94.3054526 168.003701 92.932067 160.362233 90.8429715 154.8108 89.3252693 148.720871 88.6977522 143.117841 90.0118419 134.435409 92.04815 126.360444 96.3110136 118.565059 100.645746 112.596712 103.964528 121.200811 130.951266 131.805475 106.304258 134.227463 100.675154 136.910354 94.5961092 136.361134 88.4918995 133.064209 51.8488027 128.159906 158.474591 131.253791 119.83573 132.154824 108.582928 133.432661 97.2868619 132.914531 86.0098962 132.668665 80.658697 131.257583 96.5944638 130.429109 101.886748M297.885116 177.405683C321.414985 208.0225 309.8054 191.706199 340.091788 269.353658 342.463317 275.433723 337.479962 289.334979 343.953576 288.549335 350.486334 287.756513 345.526306 275.328319 344.641759 268.801469 343.526212 260.570132 341.160523 252.468043 338.021551 244.77841 333.721024 234.243285 328.449347 224.06792 322.437899 214.408025 318.375239 207.879671 307.730067 188.771031 307.951928 196.459043 309.25731 241.693649 340.414066 244.895153 332.089526 292.966845 329.921089 305.488908 325.537796 268.35492 320.919346 256.516691 314.52746 240.132708 312.106383 196.615588 299.124983 208.470573 282.345577 223.794006 302.105215 299.174019 298.846297 276.674429L293.471644 311.877889C288.280626 276.039061 291.026761 239.469222 288.227802 203.364249 287.158784 189.574525 276.025996 149.831499 281.880592 162.359961 294.732577 189.862391 298.270502 240.820947 292.08959 271.70473 287.807592 293.100325 270.116768 314.266153 276.227253 335.212135 280.844476 351.039403 291.593881 305.966449 297.60643 290.615773 302.068777 279.222929 305.897793 267.402307 307.536743 255.27569 308.967295 244.691007 308.304685 233.804516 306.71206 223.243046 303.276138 200.457768 295.923358 178.379269 292.504775 155.591379 291.841455 151.169763 293.302957 138.052778 294.575012 142.338847 304.034595 174.21202 323.380164 241.656712 314.020452 281.507504 310.658637 295.821083 303.122524 308.854631 298.846297 322.921665 297.484745 327.400617 296.181173 332.297475 297.191245 336.868702 297.540106 338.447519 301.146887 338.644796 302.019902 337.284267L311.125533 329.553623C315.960999 322.01791 320.410073 313.941769 322.574398 305.251623 328.889914 279.893715 312.492765 254.780068 309.191795 231.389254 308.24853 224.705236 306.342015 210.847233 313.053583 211.510457 320.418861 212.23828 318.879849 225.236999 320.367662 232.493632 325.058631 255.373278 327.814448 278.608039 331.537841 301.665242"/>
    </g>
  </g>
</svg>
