<svg xmlns="http://www.w3.org/2000/svg" width="18" height="32" viewBox="0 0 18 32">
  <defs>
    <radialGradient id="bulb-a" cx="49.996%" cy="19.264%" r="70.862%" fx="49.996%" fy="19.264%" gradientTransform="matrix(.5757 0 0 1 .212 0)">
      <stop offset="9%" stop-color="#48486A"/>
      <stop offset="12%" stop-color="#505070"/>
      <stop offset="35%" stop-color="#8D8DA3"/>
      <stop offset="56%" stop-color="#BEBECA"/>
      <stop offset="75%" stop-color="#E2E2E7"/>
      <stop offset="90%" stop-color="#F7F7F9"/>
      <stop offset="100%" stop-color="#FFF"/>
    </radialGradient>
    <linearGradient id="bulb-b" x1="-.006%" x2="100.04%" y1="49.993%" y2="49.993%">
      <stop offset="2%" stop-color="#FFC107"/>
      <stop offset="14%" stop-color="#FFBC06"/>
      <stop offset="100%" stop-color="#FF9800"/>
    </linearGradient>
  </defs>
  <g fill="none">
    <path fill="url(#bulb-a)" d="M14.7768224,30.486729 C18.0336449,28.6175701 18.0336449,25.5581308 14.7768224,23.6859813 C11.52,21.8138318 6.20261682,21.8168224 2.96373832,23.6859813 C-0.275140187,25.5551402 -0.275140187,28.6175701 2.96373832,30.486729 C6.20261682,32.3558879 11.52,32.3558879 14.7768224,30.486729 Z" opacity=".44" style="mix-blend-mode:multiply"/>
    <path fill="#48486A" d="M11.5229907,24.7237383 L11.0414953,25.1214953 L6.82766355,25.1214953 L6.37009346,24.7057944 C5.02082173,23.4646311 4.25292779,21.7151778 4.25271028,19.8818692 L4.25271028,18.0485981 L13.8736449,18.0485981 L13.8736449,19.6934579 C13.8735196,21.6355503 13.0126734,23.4777173 11.5229907,24.7237383 Z"/>
    <path fill="#363650" d="M9.67775701,26.4134579 L8.1046729,26.4134579 C7.33168071,26.4134579 6.70504673,25.786824 6.70504673,25.0138318 L11.0654272,25.0138318 C11.0670831,25.7828481 10.4467593,26.4085196 9.67775701,26.4134579 Z"/>
    <path fill="#2842A2" d="M12.4471028,16.0927103 C10.5779439,15.0160748 7.52149533,15.0160748 5.6553271,16.0927103 C3.78915888,17.1693458 3.78616822,18.9368224 5.6553271,20.0164486 C7.52448598,21.0960748 10.5779439,21.0930841 12.4471028,20.0164486 C14.3162617,18.9398131 14.313271,17.1723364 12.4471028,16.0927103 Z"/>
    <path fill="url(#bulb-b)" d="M9.0646729,-9.80734557e-15 C5.17497251,-0.00183852515 1.74663288,2.5531276 0.636538165,6.28105762 C-0.47355655,10.0089876 0.998622,14.0232192 4.25570093,16.1495327 L4.25570093,18.1383178 C4.28261682,18.8411215 4.78504673,19.5170093 5.68224299,20.0373832 C7.53345794,21.1080374 10.5988785,21.0960748 12.4530841,20.0373832 C13.3502804,19.52 13.8078505,18.8411215 13.837757,18.1562617 L13.8676636,18.1562617 L13.8676636,16.1495327 C17.123815,14.0238239 18.5961887,10.011171 17.4876781,6.28392471 C16.3791675,2.55667845 12.9532665,0.000808736603 9.0646729,-9.80734557e-15 Z" opacity=".83"/>
    <path fill="#FFF" d="M4.14803738,9.75252336 C4.14803738,6.57631828 6.72286034,4.00149533 9.89906542,4.00149533 C12.8388785,4.00149533 12.6115888,1.55214953 8.86429907,1.55214953 C5.12244925,1.56039515 2.09344886,4.59608502 2.09345794,8.33794393 C2.09345794,10.715514 4.14803738,11.7682243 4.14803738,9.75252336 Z"/>
    <path fill="#6D6D88" d="M12.4590654,20.791028 C10.6048598,21.8586916 7.53943925,21.8736449 5.6882243,20.791028 C4.79102804,20.2736449 4.28261682,19.5947664 4.25570093,18.8979439 L4.25570093,19.5588785 C4.28261682,20.2527103 4.78504673,20.9345794 5.68224299,21.4609346 C7.53345794,22.5315888 10.5988785,22.5196262 12.4530841,21.4609346 C13.3502804,20.9435514 13.8078505,20.2646729 13.837757,19.5828037 L13.8676636,19.5828037 L13.8676636,18.9099065 L13.837757,18.9099065 C13.8138318,19.5947664 13.3562617,20.2706542 12.4590654,20.791028 Z" opacity=".49"/>
    <path fill="#6D6D88" d="M12.4321495,22.7050467 C10.5809346,23.7727103 7.51551402,23.7846729 5.66429907,22.7050467 C5.19701326,22.4531188 4.79938473,22.0893966 4.50691589,21.6463551 C4.62664231,22.0727295 4.7899977,22.4856278 4.99439252,22.8785047 C5.19931019,23.0640063 5.42395552,23.226473 5.66429907,23.3629907 C7.51551402,24.4336449 10.5809346,24.4216822 12.4321495,23.3629907 C12.6287829,23.2502272 12.8149441,23.1201145 12.9884112,22.9742056 C13.2370354,22.5491544 13.437644,22.0977851 13.5865421,21.6284112 C13.3051099,22.0841982 12.906424,22.4560296 12.4321495,22.7050467 Z" opacity=".49"/>
  </g>
</svg>
