<svg xmlns="http://www.w3.org/2000/svg" width="64" height="56" viewBox="0 0 64 56">
  <g fill="none">
    <path fill="#C4EAF5" d="M26.3901235,0.474074074 C10.508642,1.97530864 -0.869135802,15.5654321 0.948148148,30.8148148 C2.84444444,46.0641975 17.2246914,57.2839506 33.1851852,55.782716 C49.145679,54.2814815 60.4444444,40.691358 58.6271605,25.4419753 C56.7308642,10.1135802 42.2716049,-1.02716049 26.3901235,0.474074074 Z"/>
    <path fill="#8CD5E8" d="M34.6074074,50.2518519 C21.0962963,50.2518519 11.0617284,39.1901235 10.508642,26.1530864 C9.95555556,13.1160494 21.9654321,2.05432099 34.6074074,2.05432099 C37.5308642,2.05432099 40.217284,2.52839506 42.745679,3.47654321 C37.8469136,1.02716049 32.237037,-0.158024691 26.3901235,0.395061728 C10.508642,1.8962963 -0.869135802,15.4864198 0.948148148,30.7358025 C2.84444444,45.9851852 17.2246914,57.2049383 33.1851852,55.7037037 C48.6716049,54.2814815 59.891358,41.3234568 58.7061728,26.5481481 C59.0222222,39.4271605 47.091358,50.2518519 34.6074074,50.2518519 Z"/>
    <path fill="#8CD5E8" d="M39.3481481,15.3283951 C36.7407407,15.5654321 34.8444444,17.9358025 35.1604938,20.6222222 C35.4765432,23.308642 37.9259259,25.2839506 40.5333333,25.0469136 C43.1407407,24.8098765 45.037037,22.4395062 44.7209877,19.7530864 C44.4049383,17.0666667 41.9555556,15.091358 39.3481481,15.3283951 Z"/>
    <path fill="#FFF" d="M39.8222222,14.854321 C37.2148148,15.091358 35.3185185,17.4617284 35.6345679,20.1481481 C35.9506173,22.8345679 38.4,24.8098765 41.0074074,24.5728395 C43.6148148,24.3358025 45.5111111,21.9654321 45.1950617,19.2790123 C44.8790123,16.5925926 42.508642,14.5382716 39.8222222,14.854321 Z"/>
    <path fill="#008BDC" d="M40.0592593,16.8296296 C38.4790123,16.9876543 37.3728395,18.4098765 37.6098765,19.9901235 C37.7679012,21.5703704 39.1901235,22.7555556 40.7703704,22.5975309 C42.3506173,22.4395062 43.4567901,21.017284 43.2197531,19.437037 C42.982716,17.8567901 41.6395062,16.6716049 40.0592593,16.8296296 Z"/>
    <path fill="#003689" d="M39.4271605,17.6987654 C38.3209877,17.7777778 37.4518519,18.8049383 37.6098765,19.9901235 C37.7679012,21.1753086 38.7950617,22.0444444 39.9012346,21.8864198 C41.0074074,21.7283951 41.8765432,20.7802469 41.7185185,19.5950617 C41.5604938,18.4098765 40.5333333,17.5407407 39.4271605,17.6987654 Z"/>
    <g transform="translate(34.765 22.914)">
      <path fill="#008BDC" d="M15.8814815,7.11111111 C10.9037037,10.4296296 7.50617284,17.7777778 8.21728395,23.4666667 C8.92839506,29.1555556 13.5111111,31.0518519 18.4888889,27.654321 C23.4666667,24.3358025 26.8641975,16.9876543 26.1530864,11.2987654 C25.4419753,5.68888889 20.8592593,3.79259259 15.8814815,7.11111111 Z"/>
      <path fill="#003689" d="M16.0395062,8.37530864 C11.7728395,11.2987654 8.77037037,17.6987654 9.40246914,22.6765432 C10.0345679,27.654321 13.9851852,29.3135802 18.3308642,26.3901235 C22.6765432,23.4666667 25.6,17.0666667 24.9679012,12.0888889 C24.3358025,7.11111111 20.3061728,5.45185185 16.0395062,8.37530864 Z"/>
      <path fill="#FFF" fill-opacity=".66" d="M19.8602851,9.87810022 C18.7890686,10.6120819 18.0352496,12.2189067 18.1939483,13.4686593 C18.352647,14.7184119 19.3445142,15.1349961 20.4355681,14.4010144 C21.5266219,13.6670327 22.2606036,12.060208 22.1019049,10.8104553 C21.9432061,9.56070273 20.9315016,9.14411853 19.8602851,9.87810022 Z"/>
      <path fill="#C39ADC" d="M15.4864198,4.34567901 C9.1654321,8.61234568 4.81975309,17.8567901 5.76790123,25.1259259 C6.71604938,32.3160494 12.4839506,34.6864198 18.8049383,30.4987654 C25.1259259,26.2320988 29.4716049,16.9876543 28.5234568,9.71851852 C27.654321,2.52839506 21.8074074,0.0790123457 15.4864198,4.34567901 Z M18.4888889,27.7333333 C13.5111111,31.0518519 8.92839506,29.2345679 8.21728395,23.545679 C7.50617284,17.8567901 10.9037037,10.508642 15.8814815,7.19012346 C20.8592593,3.87160494 25.4419753,5.68888889 26.1530864,11.3777778 C26.8641975,16.9876543 23.4666667,24.3358025 18.4888889,27.7333333 Z"/>
      <path fill="#008BDC" d="M6.95308642,5.05679012 C3.23950617,9.08641975 0.711111111,14.5382716 0.395061728,19.9901235 C0.158024691,23.782716 1.18518519,28.2074074 4.97777778,29.8666667 C6.71604938,30.6567901 8.45432099,31.2888889 10.1925926,32.0790123 C7.34814815,30.8938272 6.00493827,27.7333333 5.68888889,24.8098765 C5.13580247,19.1209877 7.66419753,13.1950617 10.982716,8.61234568 C13.2740741,5.45185185 19.1209877,0.632098765 24.0197531,2.7654321 C22.5185185,2.13333333 20.7802469,1.42222222 19.1209877,0.711111111 C14.6962963,-1.18518519 10.0345679,1.7382716 6.95308642,5.05679012 Z"/>
    </g>
  </g>
</svg>
