<svg xmlns="http://www.w3.org/2000/svg" width="142px" height="219px" viewBox="0 0 142 219">
  <g id="gift">
    <polygon fill="#6753C6" points="41.6,168.1 41.7,201.3 72.1,218.9 72,185.6 	"/>
    <polygon fill="#1DCAFF" points="41.6,168.1 72,185.6 101,168.9 70.6,151.2 	"/>
    <polygon fill="#8C85CB" points="72.1,218.9 102.1,200.8 102.1,167.4 72,185.6 	"/>
    <polygon fill="#C4EAF5" points="83.8,178.9 83.9,212.1 89.3,209.1 89.2,175.8 	"/>
    <polygon fill="#8CD5E8" points="54.1,208.6 59.5,211.8 59.6,178.4 54.2,175.2 	"/>
    <polygon fill="#FFF792" points="54.2,175.2 59.6,178.4 88.4,161.6 83,158.6 	"/>
    <polygon fill="#FFF792" points="53.3,161.2 83.8,178.9 89.2,175.8 58.8,158.1 	"/>
    <polygon fill="#BD1757" points="39.5,164.6 39.6,172.4 72.1,191.2 72,183.4 	"/>
    <polygon fill="#FF65A7" points="39.5,164.6 72,183.4 103,165.6 70.5,146.6 	"/>
    <polygon fill="#E62B7C" points="72.1,191.2 102.9,173.4 102.9,165.6 72,183.4 	"/>
    <polygon fill="#C4EAF5" points="84.6,176.1 84.7,183.9 90.5,180.6 90.4,172.9 	"/>
    <polygon fill="#8CD5E8" points="52.9,180.1 58.7,183.4 58.8,175.6 53,172.4 	"/>
    <polygon fill="#DBF8FE" points="53,172.4 58.8,175.6 89.5,157.9 83.7,154.4 	"/>
    <polygon fill="#DBF8FE" points="52.1,157.2 84.6,176.1 90.4,172.9 57.9,153.9 	"/>
    <path fill="#EDFCFF" d="M81.3,151.9C81.3,151.9,81.3,151.9,81.3,151.9c-0.1,0-0.1-0.1-0.1-0.1l0,0l0,0c0,0-0.1,0-0.1-0.1l0,0
      c-0.1,0-0.1,0-0.2,0l0,0c0,0,0,0-0.1,0l0,0h-0.1l0,0l0,0h-0.1l0,0l0,0c0,0,0,0-0.1,0l0,0h-0.1l0,0h-0.1l0,0h-0.1l0,0
      c-0.1,0-0.1,0-0.2,0.1l0,0c0,0-0.1,0-0.1,0.1l0,0c0,0-0.1,0-0.1,0.1l0,0c0,0-0.1,0-0.1,0.1l0,0l-0.1,0.1c-0.1,0.1-0.2,0.1-0.3,0.2
      c0,0-0.1,0-0.1,0.1c-0.1,0-0.1,0.1-0.2,0.1c0,0-0.1,0-0.1,0.1c-0.1,0-0.1,0.1-0.2,0.2c0,0,0,0-0.1,0.1c-0.1,0.1-0.2,0.1-0.3,0.2
      c0,0,0,0-0.1,0c-0.1,0.1-0.2,0.1-0.2,0.2l-0.1,0.1c-0.1,0.1-0.1,0.1-0.2,0.2l-0.1,0.1c-0.1,0.1-0.1,0.1-0.2,0.2l0,0
      c-0.1,0.1-0.2,0.2-0.3,0.3l0,0l0,0c-0.1,0.1-0.2,0.2-0.2,0.2s0,0-0.1,0.1c-0.1,0.1-0.2,0.2-0.3,0.3l0,0c-0.1,0.1-0.2,0.2-0.3,0.3
      c0,0,0,0.1-0.1,0.1c-0.1,0.1-0.2,0.2-0.3,0.3c-0.1,0.1-0.1,0.1-0.2,0.2l0,0l0,0c-0.1,0.1-0.2,0.2-0.2,0.3l0,0
      c-0.1,0.1-0.2,0.2-0.2,0.3l0,0l0,0c-0.1,0.1-0.1,0.2-0.2,0.2l0,0c-0.1,0.1-0.1,0.2-0.2,0.2l0,0l0,0c-0.1,0.1-0.1,0.2-0.2,0.2
      c0,0,0,0,0,0.1c-0.1,0.1-0.1,0.2-0.2,0.2l0,0c-0.1,0.1-0.1,0.2-0.2,0.2c0,0,0,0,0,0.1c0,0.1-0.1,0.2-0.1,0.2l0,0l0,0
      c0,0.1-0.1,0.2-0.1,0.2s0,0,0,0.1c0,0.1-0.1,0.2-0.1,0.2l0,0l0,0c0,0.1-0.1,0.2-0.1,0.3l0,0c0,0.1-0.1,0.2-0.1,0.3l0,0l0,0
      c0,0.1-0.1,0.2-0.1,0.3l0,0c0,0.1-0.1,0.2-0.1,0.3l0,0l0,0c0,0.1-0.1,0.2-0.1,0.3l0,0c0,0.1-0.1,0.2-0.1,0.3l0,0l0,0
      c0,0.1-0.1,0.3-0.1,0.4l0,0c0,0.1-0.1,0.2-0.1,0.4l0,0l0,0c0,0.1,0,0.1-0.1,0.2l0,0c0,0.1,0,0.1-0.1,0.2l0,0c0,0.1,0,0.1-0.1,0.2
      l0,0c0,0.1,0,0.1,0,0.2l0,0l0,0v0.1l0,0v0.1l0,0v0.1c0,0,0,0,0,0.1c0,0,0,0,0,0.1c0,0,0,0,0,0.1c0,0,0,0,0,0.1c0,0,0,0,0,0.1
      c0,0,0,0,0,0.1l0,0c0,0,0,0,0,0.1l0,0c0,0,0,0,0,0.1l0,0l0,0l0,0l0,0l0,0l0,0l0,0l0,0l0,0l0,0l0,0l0,0l0,0l0,0l0,0l0,0l0,0l0,0l0,0
      l0,0l0,0l0,0l0,0l0,0l0,0l0,0l0,0l0,0l0,0l5,2.9l0,0l0,0l0,0l0,0l0,0l0,0l0,0l0,0l0,0l0,0l0,0l0,0l0,0l0,0l0,0l0,0l0,0l0,0l0,0l0,0
      l0,0l0,0l0,0l0,0l0,0l0,0l0,0l0,0l0,0c0,0,0,0,0-0.1l0,0c0,0,0,0,0-0.1l0,0c0,0,0,0,0-0.1c0,0,0,0,0-0.1c0,0,0,0,0-0.1l0,0
      c0,0,0,0,0-0.1l0,0v-0.1l0,0v-0.1l0,0v-0.1l0,0c0-0.1,0-0.1,0-0.2l0,0c0-0.1,0-0.1,0.1-0.2l0,0c0-0.1,0-0.1,0.1-0.2l0,0
      c0-0.1,0-0.1,0.1-0.2l0,0c0-0.1,0.1-0.2,0.1-0.4l0,0c0-0.1,0.1-0.3,0.1-0.4l0,0c0-0.1,0.1-0.2,0.1-0.3l0,0c0-0.1,0.1-0.2,0.1-0.3
      l0,0c0-0.1,0.1-0.2,0.1-0.3l0,0c0-0.1,0.1-0.2,0.1-0.3l0,0c0-0.1,0.1-0.2,0.1-0.3l0,0c0-0.1,0.1-0.2,0.1-0.3l0,0
      c0-0.1,0.1-0.2,0.1-0.2s0,0,0-0.1c0-0.1,0.1-0.2,0.1-0.2l0,0c0-0.1,0.1-0.2,0.1-0.2s0,0,0-0.1c0.1-0.1,0.1-0.2,0.2-0.2l0,0
      c0.1-0.1,0.1-0.2,0.2-0.2c0,0,0,0,0-0.1c0.1-0.1,0.1-0.2,0.2-0.2l0,0c0.1-0.1,0.1-0.2,0.2-0.2l0,0c0.1-0.1,0.1-0.2,0.2-0.2l0,0
      c0.1-0.1,0.1-0.2,0.2-0.3l0,0c0.1-0.1,0.2-0.2,0.2-0.3l0,0c0.1-0.1,0.1-0.1,0.2-0.2c0.1-0.1,0.2-0.2,0.3-0.3c0,0,0-0.1,0.1-0.1
      c0.1-0.1,0.2-0.2,0.3-0.3l0,0c0.1-0.1,0.2-0.2,0.3-0.3c0,0,0,0,0.1-0.1c0.1-0.1,0.2-0.2,0.2-0.2s0,0,0.1-0.1
      c0.1-0.1,0.2-0.2,0.3-0.3l0,0c0.1-0.1,0.1-0.1,0.2-0.2l0.1-0.1c0.1-0.1,0.1-0.1,0.2-0.2l0.1-0.1c0.1-0.1,0.1-0.1,0.2-0.2
      c0,0,0,0,0.1,0c0.1-0.1,0.2-0.1,0.3-0.2c0,0,0.1,0,0.1-0.1c0.1-0.1,0.1-0.1,0.2-0.2c0,0,0.1,0,0.1-0.1c0.1,0,0.1-0.1,0.2-0.1
      c0,0,0.1,0,0.1-0.1c0.1-0.1,0.2-0.1,0.3-0.2l0.1-0.1l0,0c0,0,0.1,0,0.1-0.1l0,0c0,0,0.1,0,0.1-0.1c0,0,0.1,0,0.1-0.1l0,0
      c0.1,0,0.1,0,0.2-0.1h0.1l0,0h0.1l0,0h0.1l0,0h0.1l0,0h0.1l0,0h0.1l0,0H86c0.1,0,0.1,0,0.2,0l0,0c0,0,0.1,0,0.1,0.1l0,0
      c0,0,0.1,0,0.1,0.1l0,0L81.3,151.9L81.3,151.9z"/>
    <path fill="#8CD5E8" d="M84,155.1c-1.3,0.8-2.6,2-3.7,3.3c-3.3,3.7-3.9,8.3-4,8.5l7.7-4.5c1.8-1,3.2-3.5,3.2-5.6
      C87.3,154.9,85.8,154.1,84,155.1z"/>
    <path fill="#EDFCFF" d="M73.3,164.4L73.3,164.4L73.3,164.4L73.3,164.4L73.3,164.4c0-0.1,0-0.1,0-0.1l0,0l0,0l0,0l0,0l0,0l0,0l0,0
      l0,0l0,0l0,0l0,0l0,0l0,0l0,0l0,0l0,0l0,0l0,0l0,0l0,0l0,0l0,0l0,0c0,0,0,0,0-0.1l0,0c0,0,0,0,0-0.1l0,0c0,0,0,0,0-0.1
      c0,0,0,0,0-0.1c0,0,0,0,0-0.1c0,0,0,0,0-0.1c0,0,0,0,0-0.1c0,0,0,0,0-0.1v-0.1l0,0v-0.1l0,0v-0.1l0,0l0,0c0-0.1,0-0.1,0-0.2l0,0
      c0-0.1,0-0.1-0.1-0.2l0,0c0-0.1,0-0.1-0.1-0.2l0,0c0-0.1,0-0.1-0.1-0.2l0,0l0,0c0-0.1-0.1-0.2-0.1-0.4l0,0c0-0.1-0.1-0.3-0.1-0.4
      l0,0l0,0c0-0.1-0.1-0.2-0.1-0.3l0,0c0-0.1-0.1-0.2-0.1-0.3l0,0l0,0c0-0.1-0.1-0.2-0.1-0.3l0,0c0-0.1-0.1-0.2-0.1-0.3l0,0l0,0
      c0-0.1-0.1-0.2-0.1-0.3l0,0c0-0.1-0.1-0.2-0.1-0.3l0,0l0,0c0-0.1-0.1-0.2-0.1-0.2s0,0,0-0.1c0-0.1-0.1-0.2-0.1-0.2l0,0l0,0
      c0-0.1-0.1-0.2-0.1-0.2s0,0,0-0.1c-0.1-0.1-0.1-0.2-0.2-0.2l0,0c-0.1-0.1-0.1-0.2-0.2-0.2c0,0,0,0,0-0.1c-0.1-0.1-0.1-0.2-0.2-0.2
      l0,0l0,0c-0.1-0.1-0.1-0.2-0.2-0.2l0,0c-0.1-0.1-0.1-0.2-0.2-0.3l0,0l0,0c-0.1-0.1-0.1-0.2-0.2-0.3l0,0c-0.1-0.1-0.2-0.2-0.2-0.3
      l0,0l0,0c-0.1-0.1-0.1-0.1-0.2-0.2c-0.1-0.1-0.2-0.2-0.3-0.3c0,0,0-0.1-0.1-0.1c-0.1-0.1-0.2-0.2-0.3-0.3l0,0
      c-0.1-0.1-0.2-0.2-0.3-0.3c0,0,0,0-0.1-0.1c-0.1-0.1-0.2-0.2-0.2-0.2l0,0l0,0c-0.1-0.1-0.2-0.2-0.3-0.3l0,0
      c-0.1-0.1-0.1-0.1-0.2-0.2l-0.1-0.1c-0.1-0.1-0.1-0.1-0.2-0.2l-0.1-0.1c-0.1-0.1-0.1-0.1-0.2-0.2c0,0,0,0-0.1,0
      c-0.1-0.1-0.2-0.1-0.3-0.2c0,0,0,0-0.1-0.1s-0.1-0.1-0.2-0.2c0,0-0.1,0-0.1-0.1c-0.1,0-0.1-0.1-0.2-0.1c0,0-0.1,0-0.1-0.1
      c-0.1-0.1-0.2-0.1-0.3-0.2l-0.1-0.1l0,0c0,0-0.1,0-0.1-0.1l0,0c0,0-0.1,0-0.1-0.1l0,0c0,0-0.1,0-0.1-0.1l0,0c-0.1,0-0.1,0-0.2-0.1
      l0,0h-0.1l0,0h-0.1l0,0h-0.1l0,0c0,0,0,0-0.1,0l0,0l0,0h-0.1l0,0l0,0h-0.1l0,0c0,0,0,0-0.1,0l0,0c-0.1,0-0.1,0-0.2,0l0,0
      c0,0-0.1,0-0.1,0.1l0,0l0,0c0,0-0.1,0-0.1,0.1l0,0l0,0l-5,2.9l0,0c0,0,0.1,0,0.1-0.1l0,0c0,0,0.1,0,0.1-0.1l0,0c0.1,0,0.1,0,0.2,0
      h0.1l0,0h0.1l0,0h0.1l0,0h0.1l0,0h0.1l0,0h0.1l0,0h0.1c0.1,0,0.1,0,0.2,0.1l0,0c0,0,0.1,0,0.1,0.1c0,0,0.1,0,0.1,0.1l0,0
      c0,0,0.1,0,0.1,0.1l0,0l0.1,0.1c0.1,0.1,0.2,0.1,0.3,0.2c0,0,0.1,0,0.1,0.1c0.1,0,0.1,0.1,0.2,0.1c0,0,0.1,0,0.1,0.1
      c0.1,0,0.1,0.1,0.2,0.2c0,0,0.1,0,0.1,0.1c0.1,0.1,0.2,0.1,0.3,0.2c0,0,0,0,0.1,0c0.1,0.1,0.1,0.1,0.2,0.2l0.1,0.1
      c0.1,0.1,0.1,0.1,0.2,0.2l0.1,0.1c0.1,0.1,0.1,0.1,0.2,0.2l0,0c0.1,0.1,0.2,0.2,0.3,0.3c0,0,0,0,0.1,0.1c0.1,0.1,0.2,0.2,0.2,0.2
      s0,0,0.1,0.1c0.1,0.1,0.2,0.2,0.3,0.3l0,0c0.1,0.1,0.2,0.2,0.3,0.3c0,0,0,0.1,0.1,0.1c0.1,0.1,0.2,0.2,0.3,0.3
      c0.1,0.1,0.1,0.1,0.2,0.2l0,0c0.1,0.1,0.2,0.2,0.2,0.3l0,0c0.1,0.1,0.2,0.2,0.2,0.3l0,0c0.1,0.1,0.1,0.2,0.2,0.2l0,0
      c0.1,0.1,0.1,0.2,0.2,0.2l0,0c0.1,0.1,0.1,0.2,0.2,0.2c0,0,0,0,0,0.1c0.1,0.1,0.1,0.2,0.2,0.2l0,0c0.1,0.1,0.1,0.2,0.2,0.2
      c0,0,0,0,0,0.1c0,0.1,0.1,0.2,0.1,0.2l0,0c0,0.1,0.1,0.2,0.1,0.2s0,0,0,0.1c0,0.1,0.1,0.2,0.1,0.2l0,0c0,0.1,0.1,0.2,0.1,0.3l0,0
      c0,0.1,0.1,0.2,0.1,0.3l0,0c0,0.1,0.1,0.2,0.1,0.3l0,0c0,0.1,0.1,0.2,0.1,0.3l0,0c0,0.1,0.1,0.2,0.1,0.3l0,0c0,0.1,0.1,0.2,0.1,0.3
      l0,0c0,0.1,0.1,0.3,0.1,0.4l0,0c0,0.1,0.1,0.2,0.1,0.4l0,0c0,0.1,0,0.1,0.1,0.2l0,0c0,0.1,0,0.1,0.1,0.2l0,0c0,0.1,0,0.1,0.1,0.2
      l0,0c0,0.1,0,0.1,0,0.2l0,0v0.1l0,0v0.1l0,0v0.1l0,0c0,0,0,0,0,0.1l0,0c0,0,0,0,0,0.1c0,0,0,0,0,0.1c0,0,0,0,0,0.1l0,0
      c0,0,0,0,0,0.1l0,0c0,0,0,0,0,0.1l0,0l0,0l0,0l0,0l0,0l0,0l0,0l0,0l0,0l0,0l0,0l0,0l0,0l0,0l0,0l0,0l0,0l0,0l0,0l0,0l0,0l0,0l0,0
      l0,0l0,0l0,0l0,0l0,0l0,0L73.3,164.4C73.3,164.4,73.3,164.4,73.3,164.4z"/>
    <path fill="#8CD5E8" d="M60.6,155.4c-1.8-1-3.2-0.2-3.2,1.8s1.4,4.5,3.2,5.6l7.7,4.5c0-0.2-0.7-4.9-4-8.5
      C63.2,157.6,62,156.2,60.6,155.4z"/>
    <path fill="#EDFCFF" d="M64.3,162.6c-0.1,0-0.1-0.1-0.2-0.1l0,0c-0.1,0-0.1-0.1-0.2-0.1l0,0c0,0,0,0-0.1,0c0,0-0.1,0-0.1-0.1
      c0,0,0,0-0.1,0c0,0,0,0-0.1,0h-0.1l0,0c-0.1,0-0.1,0-0.2,0l0,0c0,0,0,0-0.1,0c-0.1,0-0.1,0-0.2,0c0,0,0,0-0.1,0c0,0,0,0-0.1,0h-0.1
      c0,0,0,0-0.1,0s-0.2,0-0.2,0l0,0c-0.1,0-0.2,0-0.3,0h-0.1c-0.1,0-0.1,0-0.2,0h-0.1c-0.1,0-0.2,0-0.2,0l0,0c-0.1,0-0.2,0-0.3,0l0,0
      H61h-0.1h-0.1h-0.1h-0.1h-0.1c-0.1,0-0.1,0-0.2,0l0,0c-0.1,0-0.1,0-0.2,0.1c0,0,0,0-0.1,0s-0.1,0-0.2,0.1h-0.1c0,0-0.1,0-0.1,0.1
      h-0.1h-0.1c0,0,0,0-0.1,0h-0.1c0,0-0.1,0-0.1,0.1H59c-0.1,0-0.1,0.1-0.2,0.1c0,0,0,0-0.1,0c-0.1,0-0.2,0.1-0.2,0.1
      c-0.1,0-0.1,0.1-0.2,0.1l0,0c0,0-0.1,0-0.1,0.1c0,0,0,0-0.1,0c0,0-0.1,0.1-0.2,0.1c0,0-0.1,0-0.1,0.1c0,0,0,0-0.1,0l-0.1,0.1l0,0
      l-0.1,0.1l0,0l-0.1,0.1l0,0c-0.1,0.1-0.1,0.1-0.2,0.2l0,0c-0.1,0.1-0.1,0.1-0.2,0.2l0,0l0,0c-0.1,0.1-0.2,0.2-0.2,0.3l0,0l0,0
      c-0.1,0.1-0.1,0.2-0.2,0.2l0,0l0,0c-0.1,0.1-0.1,0.2-0.2,0.2l0,0l0,0c0,0.1-0.1,0.1-0.1,0.2l0,0l0,0c0,0.1-0.1,0.2-0.1,0.2l0,0l0,0
      c0,0.1-0.1,0.1-0.1,0.2l0,0l0,0c0,0.1-0.1,0.2-0.1,0.2l0,0l0,0c0,0.1-0.1,0.2-0.1,0.2l0,0l0,0c0,0.1-0.1,0.2-0.1,0.3l0,0l0,0
      c0,0.1-0.1,0.2-0.1,0.3l0,0l0,0v0.1v0.1v0.1c0,0,0,0,0,0.1l0,0v0.1v0.1v0.1c0,0,0,0,0,0.1l0,0c0,0,0,0,0,0.1v0.1c0,0,0,0,0,0.1v0.1
      c0,0,0,0,0,0.1c0,0.1,0,0.1,0,0.2c0,1,0.4,1.7,0.9,2.1l5,2.9c-0.6-0.3-0.9-1.1-0.9-2.1c0-0.1,0-0.1,0-0.2c0,0,0,0,0-0.1v-0.1
      c0,0,0,0,0-0.1v-0.1c0,0,0,0,0-0.1v-0.1v-0.1v-0.1v-0.1v-0.1v-0.1v-0.1v-0.1c0,0,0,0,0-0.1c0-0.1,0.1-0.2,0.1-0.3l0,0
      c0-0.1,0.1-0.2,0.1-0.3c0,0,0,0,0-0.1c0-0.1,0.1-0.2,0.1-0.2l0,0c0-0.1,0.1-0.2,0.1-0.2s0,0,0-0.1c0-0.1,0.1-0.1,0.1-0.2
      c0,0,0,0,0-0.1c0-0.1,0.1-0.2,0.1-0.2l0,0c0-0.1,0.1-0.1,0.1-0.2c0,0,0,0,0-0.1c0.1-0.1,0.1-0.2,0.2-0.2l0,0
      c0.1-0.1,0.1-0.2,0.2-0.2l0,0c0.1-0.1,0.2-0.2,0.2-0.3l0,0c0-0.1,0.1-0.1,0.2-0.2l0,0c0.1-0.1,0.1-0.1,0.2-0.2l0.1-0.1l0,0l0.1-0.1
      l0,0l0.1-0.1c0,0,0,0,0.1,0c0,0,0.1,0,0.1-0.1c0,0,0,0,0.1,0c0,0,0.1,0,0.1-0.1c0,0,0,0,0.1,0c0,0,0.1,0,0.1-0.1l0,0
      c0.1,0,0.1-0.1,0.2-0.1s0.2-0.1,0.2-0.1h0.1c0.1,0,0.1-0.1,0.2-0.1h0.1c0,0,0.1,0,0.1-0.1h0.1c0,0,0.1,0,0.1-0.1h0.1
      c0,0,0.1,0,0.1-0.1h0.1c0.1,0,0.1,0,0.2-0.1c0,0,0,0,0.1,0s0.2,0,0.2-0.1l0,0c0.1,0,0.1,0,0.2,0h0.1h0.1h0.1h0.1h0.1H66
      c0.1,0,0.2,0,0.3,0l0,0c0.1,0,0.2,0,0.2,0h0.1c0.1,0,0.1,0,0.2,0h0.1c0.1,0,0.2,0,0.3,0c0.1,0,0.2,0,0.3,0c0,0,0,0,0.1,0
      s0.1,0,0.2,0c0,0,0,0,0.1,0s0.1,0,0.2,0c0,0,0,0,0.1,0c0.1,0,0.1,0,0.2,0l0,0c0.1,0,0.1,0,0.2,0c0,0,0,0,0.1,0c0,0,0.1,0,0.1,0.1
      c0,0,0,0,0.1,0s0.1,0.1,0.2,0.1l0,0c0.1,0,0.1,0.1,0.2,0.1L64.3,162.6L64.3,162.6z"/>
    <path fill="#8CD5E8" d="M67.5,165.1c-1.1,0.1-2.4,0.2-3.7,1c-1.8,1-3.2,3.5-3.2,5.6c0,2,1.5,2.9,3.2,1.8l7.7-4.5
      C71.5,168.8,70.8,164.9,67.5,165.1z"/>
    <path fill="#EDFCFF" d="M84.3,166.8v-0.1c0,0,0,0,0-0.1v-0.1c0,0,0,0,0-0.1l0,0c0,0,0,0,0-0.1v-0.1v-0.1v-0.1l0,0c0,0,0,0,0-0.1
      v-0.1v-0.1v-0.1l0,0l0,0c0-0.1-0.1-0.2-0.1-0.3l0,0l0,0c0-0.1-0.1-0.2-0.1-0.3l0,0l0,0c0-0.1-0.1-0.2-0.1-0.2l0,0l0,0
      c0-0.1-0.1-0.2-0.1-0.2l0,0l0,0c0-0.1-0.1-0.1-0.1-0.2l0,0l0,0c0-0.1-0.1-0.2-0.1-0.2l0,0l0,0c0-0.1-0.1-0.1-0.1-0.2l0,0l0,0
      c-0.1-0.1-0.1-0.2-0.2-0.2l0,0l0,0c-0.1-0.1-0.1-0.2-0.2-0.2l0,0l0,0c-0.1-0.1-0.2-0.2-0.2-0.3l0,0l0,0c0-0.1-0.1-0.1-0.2-0.2l0,0
      c-0.1-0.1-0.1-0.1-0.2-0.2l0,0l-0.1-0.1l0,0l-0.1-0.1l0,0l-0.1-0.1c0,0,0,0-0.1,0l-0.1-0.1c0,0-0.1-0.1-0.2-0.1c0,0,0,0-0.1,0
      c0,0-0.1,0-0.1-0.1l0,0c-0.1,0-0.1-0.1-0.2-0.1s-0.2-0.1-0.2-0.1h-0.1c-0.1,0-0.1-0.1-0.2-0.1h-0.1c0,0-0.1,0-0.1-0.1h-0.1
      c0,0,0,0-0.1,0h-0.1h-0.1c0,0-0.1,0-0.1-0.1h-0.1c-0.1,0-0.1,0-0.2-0.1c0,0,0,0-0.1,0s-0.1,0-0.2-0.1l0,0c-0.1,0-0.1,0-0.2,0h-0.1
      h-0.1h-0.1h-0.1H79h-0.1l0,0c-0.1,0-0.2,0-0.3,0l0,0c-0.1,0-0.2,0-0.2,0h-0.1c-0.1,0-0.1,0-0.2,0H78c-0.1,0-0.2,0-0.3,0l0,0
      c-0.1,0-0.2,0-0.2,0s0,0-0.1,0h-0.1c0,0,0,0-0.1,0c0,0,0,0-0.1,0s-0.1,0-0.2,0c0,0,0,0-0.1,0l0,0c-0.1,0-0.1,0-0.2,0l0,0h-0.1
      c0,0,0,0-0.1,0c0,0,0,0-0.1,0c0,0-0.1,0-0.1,0.1c0,0,0,0-0.1,0l0,0c-0.1,0-0.1,0-0.2,0.1l0,0c-0.1,0-0.1,0.1-0.2,0.1l0,0l-5,2.9
      c0.1,0,0.1-0.1,0.2-0.1l0,0c0.1,0,0.1-0.1,0.2-0.1c0,0,0,0,0.1,0c0,0,0.1,0,0.1-0.1c0,0,0,0,0.1,0s0.1,0,0.2,0l0,0
      c0.1,0,0.1,0,0.2,0c0,0,0,0,0.1,0s0.1,0,0.2,0c0,0,0,0,0.1,0c0.1,0,0.1,0,0.2,0c0,0,0,0,0.1,0s0.2,0,0.3,0c0.1,0,0.2,0,0.3,0h0.1
      c0.1,0,0.1,0,0.2,0h0.1c0.1,0,0.2,0,0.2,0l0,0c0.1,0,0.2,0,0.3,0h0.1h0.1h0.1h0.1h0.1h0.1c0.1,0,0.1,0,0.2,0l0,0
      c0.1,0,0.2,0,0.2,0.1c0,0,0,0,0.1,0s0.1,0,0.2,0.1h0.1c0,0,0.1,0,0.1,0.1h0.1c0,0,0.1,0,0.1,0.1h0.1c0,0,0.1,0,0.1,0.1H76
      c0.1,0,0.1,0.1,0.2,0.1c0,0,0,0,0.1,0c0.1,0,0.2,0.1,0.2,0.1c0.1,0,0.1,0.1,0.2,0.1l0,0c0,0,0.1,0,0.1,0.1c0,0,0,0,0.1,0
      c0,0,0.1,0,0.1,0.1c0,0,0,0,0.1,0c0,0,0.1,0,0.1,0.1c0,0,0,0,0.1,0l0.1,0.1l0,0l0.1,0.1l0,0l0.1,0.1c0.1,0.1,0.1,0.1,0.2,0.2l0,0
      c0.1,0.1,0.1,0.1,0.2,0.2l0,0c0.1,0.1,0.2,0.2,0.2,0.3l0,0c0.1,0.1,0.1,0.2,0.2,0.2l0,0c0.1,0.1,0.1,0.2,0.2,0.2c0,0,0,0,0,0.1
      c0,0.1,0.1,0.1,0.1,0.2l0,0c0,0.1,0.1,0.2,0.1,0.2s0,0,0,0.1c0,0.1,0.1,0.1,0.1,0.2c0,0,0,0,0,0.1c0,0.1,0.1,0.2,0.1,0.2l0,0
      c0,0.1,0.1,0.1,0.1,0.2c0,0,0,0,0,0.1c0,0.1,0.1,0.2,0.1,0.3l0,0c0,0.1,0.1,0.2,0.1,0.3c0,0,0,0,0,0.1v0.1v0.1v0.1v0.1v0.1v0.1v0.1
      v0.1c0,0,0,0,0,0.1v0.1c0,0,0,0,0,0.1v0.1c0,0,0,0,0,0.1c0,0.1,0,0.1,0,0.2c0,1-0.4,1.7-0.9,2.1l5-2.9c0.6-0.3,0.9-1.1,0.9-2.1
      C84.3,166.9,84.3,166.9,84.3,166.8C84.3,166.9,84.3,166.9,84.3,166.8z"/>
    <path fill="#8CD5E8" d="M76.1,164.4c-1.3-0.8-2.6-0.9-3.7-1c-3.3-0.2-4,3.7-4,3.9l7.7,4.5c1.8,1,3.2,0.2,3.2-1.8
      S77.9,165.4,76.1,164.4z"/>
  </g>
  <g id="cord">
    <path fill="#FF65A7" d="M70.2,161.9c-1.4-0.1-2.5-0.9-2.6-1.8v2.5c0,0.9,1.1,1.7,2.6,1.8c1.5,0.1,2.8-0.6,2.9-1.6
      c0-0.1,0-2.5,0-2.5C73,161.1,71.7,161.9,70.2,161.9z"/>
    <path fill="#F6E000" d="M70.5,158.4c-1.5-0.1-2.8,0.6-2.9,1.6s1,1.9,2.6,1.9c1.5,0.1,2.8-0.6,2.9-1.6
      C73.1,159.2,72,158.4,70.5,158.4z"/>
    <path fill="#FF65A7" d="M71.4,158.4c-0.5-0.4-1.4-0.4-2-0.1c-0.3,0.2-0.5,0.4-0.5,0.7v0.8c0,0.2,0.1,0.4,0.4,0.6
      c0.5,0.4,1.4,0.4,2,0.1c0.3-0.2,0.5-0.4,0.5-0.7v-0.8C71.7,158.6,71.6,158.4,71.4,158.4z"/>
    <path fill="#F6E000" d="M69.9,158.1c-0.2,0-0.3,0.1-0.5,0.2c-0.6,0.3-0.6,0.9-0.1,1.3c0.5,0.4,1.4,0.4,2,0.1
      c0.6-0.3,0.6-0.9,0.1-1.3C71,158.1,70.4,157.9,69.9,158.1z"/>
    <path fill="#8CD5E8" d="M69.8,87.8l-0.1,70.8c0,0.4,0.3,0.7,0.7,0.7s0.7-0.3,0.7-0.7l0.1-70.8C70.9,88.2,70.2,88.2,69.8,87.8z"/>
  </g>
  <g id="structure">
    <path fill="#FF65A7" d="M66.2,64.4l0.8,0.5v5.9c0,0.2-0.1,0.8-0.1,0.8c-0.2,0.9-0.6,1.6-1.2,2l2.4-1.4c0.8-0.5,1.3-1.4,1.3-2.8
      v-5.9L68.6,63L66.2,64.4z"/>
    <path fill="#FF65A7" d="M66.3,71.4c-0.2,0-0.4-0.1-0.6-0.1h-0.1c-0.2-0.1-0.4-0.2-0.7-0.3l-7.1-4.1c-0.2-0.1-0.5-0.3-0.7-0.5
      c-0.1-0.1-0.1-0.1-0.2-0.2c-0.2-0.1-0.3-0.3-0.5-0.4l-0.1-0.1c-0.2-0.2-0.4-0.4-0.5-0.6c0,0,0,0,0-0.1c-0.2-0.2-0.3-0.5-0.5-0.8
      l0,0c-0.2-0.3-0.3-0.6-0.4-0.8l0,0c-0.1-0.3-0.2-0.6-0.3-0.9c0,0,0,0,0-0.1c-0.1-0.3-0.1-0.5-0.2-0.8v-0.1c0-0.3-0.1-0.6-0.1-0.8
      v-5.9l-0.8-0.5l-2.4,1.4l0.8,0.5v5.9c0,0.2,0,0.5,0,0.7v0.1V63c0,0.1,0,0.2,0,0.2c0,0.1,0.1,0.3,0.1,0.4v0.1c0,0,0,0,0,0.1
      c0,0.1,0,0.1,0.1,0.2c0,0.1,0.1,0.2,0.1,0.3c0,0.1,0.1,0.2,0.1,0.3l0,0l0,0c0,0.1,0.1,0.2,0.1,0.3s0.1,0.2,0.2,0.3
      c0,0.1,0.1,0.2,0.1,0.3l0,0l0,0c0.1,0.1,0.1,0.2,0.2,0.3c0.1,0.1,0.1,0.2,0.2,0.3l0.1,0.1c0,0,0,0,0,0.1l0.1,0.1
      c0.1,0.1,0.2,0.2,0.3,0.4c0,0.1,0.1,0.1,0.1,0.1l0.1,0.1l0.1,0.1c0.1,0.1,0.2,0.2,0.3,0.3c0.1,0.1,0.1,0.1,0.2,0.2
      c0.2,0.2,0.4,0.3,0.7,0.5l7.1,4.1c0.2,0.1,0.3,0.2,0.5,0.2c0.1,0,0.1,0,0.2,0.1H63h0.1c0.1,0,0.2,0.1,0.3,0.1h0.1c0,0,0,0,0.1,0
      h0.1c0.1,0,0.2,0,0.2,0c0.1,0,0.1,0,0.2,0l0,0l0,0h0.1c0.1,0,0.1,0,0.2-0.1c0.1,0,0.1-0.1,0.2-0.1l0,0l1.2-0.7v-0.3h0.1
      C66.3,71.6,66.3,71.5,66.3,71.4C66.3,71.5,66.3,71.4,66.3,71.4z"/>
    <path fill="#BD1757" d="M66.1,70.3c0,2.3-1.6,3.2-3.6,2.1l-7.1-4.1c-2-1.2-3.6-4-3.6-6.2v-5.9L51,55.7v5.9c0,2.8,2,6.2,4.4,7.6
      l7.1,4.1c2.4,1.4,4.4,0.3,4.4-2.5v-5.9l-0.8-0.5V70.3z"/>
    <path fill="#FF65A7" d="M88,55.9l0.8,0.5v5.9c0,0.3-0.1,0.8-0.1,0.8c-0.2,0.9-0.6,1.6-1.2,2l2.4-1.4c0.8-0.5,1.3-1.4,1.3-2.8V55
      l-0.8-0.5L88,55.9z"/>
    <path fill="#FF65A7" d="M88.1,63c-0.2,0-0.4-0.1-0.6-0.1h-0.1c-0.2-0.1-0.4-0.2-0.7-0.3l-7.1-4.1c-0.2-0.1-0.5-0.3-0.7-0.5
      c-0.1-0.1-0.1-0.1-0.2-0.2c-0.2-0.1-0.3-0.3-0.5-0.4l-0.1-0.1c-0.2-0.2-0.4-0.4-0.5-0.6c0,0,0,0-0.1-0.1c-0.2-0.2-0.3-0.5-0.5-0.8
      l0,0c-0.2-0.3-0.3-0.6-0.4-0.8l0,0c-0.1-0.3-0.2-0.6-0.3-0.9c0,0,0,0,0-0.1c-0.1-0.3-0.1-0.5-0.2-0.8v-0.1c0-0.3-0.1-0.6-0.1-0.8
      v-5.9l-0.8-0.5l-2.4,1.4l0.8,0.5v5.9c0,0.2,0,0.5,0,0.7v0.1v0.1c0,0.1,0,0.2,0,0.2c0,0.1,0.1,0.3,0.1,0.4v0.1c0,0,0,0,0,0.1
      c0,0.1,0,0.1,0.1,0.2c0,0.1,0.1,0.2,0.1,0.3c0,0.1,0.1,0.2,0.1,0.3l0,0l0,0c0,0.1,0.1,0.2,0.1,0.3s0.1,0.2,0.2,0.3
      c0,0.1,0.1,0.2,0.1,0.3l0,0l0,0c0.1,0.1,0.1,0.2,0.2,0.3c0.1,0.1,0.1,0.2,0.2,0.3l0.1,0.1c0,0,0,0,0,0.1L75,58
      c0.1,0.1,0.2,0.2,0.3,0.4c0,0.1,0.1,0.1,0.1,0.1l0.1,0.1l0.1,0.1c0.1,0.1,0.2,0.2,0.3,0.3s0.1,0.1,0.2,0.2c0.2,0.2,0.4,0.3,0.7,0.5
      l7.1,4.1c0.2,0.1,0.3,0.2,0.5,0.3c0.1,0,0.1,0,0.2,0.1h0.1h0.1c0.1,0,0.2,0.1,0.3,0.1h0.1c0,0,0,0,0.1,0h0.1c0.1,0,0.2,0,0.2,0
      c0.1,0,0.1,0,0.2,0l0,0l0,0h0.1c0.1,0,0.1,0,0.2-0.1c0.1,0,0.1-0.1,0.2-0.1l0,0l1.2-0.7L88.1,63C88.1,63.1,88.2,63.1,88.1,63
      C88.2,63.1,88.2,63,88.1,63C88.2,63,88.1,63,88.1,63z"/>
    <path fill="#BD1757" d="M88,61.8c0,2.3-1.6,3.2-3.6,2.1l-7.1-4.1c-2-1.2-3.6-4-3.6-6.2v-5.9l-0.8-0.5v5.9c0,2.8,2,6.2,4.4,7.6
      l7.1,4.1c2.4,1.4,4.4,0.3,4.4-2.5v-5.9L88,55.9V61.8z"/>
    <polygon fill="#BD1757" points="81.7,67.7 81.7,73.6 88,70 88,64.1 	"/>
    <polygon fill="#BD1757" points="79.2,66.3 81.7,67.7 88,64.1 85.5,62.6 	"/>
    <polygon fill="#FF65A7" points="79.1,66.2 79.2,72.2 81.7,73.6 81.7,67.7 	"/>
    <path fill="#BD1757" d="M68.9,64c-0.1,0-0.2-0.1-0.3-0.1c-0.2-0.1-0.4-0.1-0.6-0.2c-0.3-0.1-0.5-0.2-0.8-0.3
      c-0.1-0.1-0.3-0.1-0.4-0.2c-0.4-0.2-0.7-0.3-1.1-0.5l-12.8-7.4c-0.3-0.2-0.5-0.3-0.8-0.5c0,0-0.1,0-0.1-0.1
      c-0.2-0.2-0.5-0.4-0.7-0.6c-0.2-0.2-0.5-0.5-0.6-0.7c-0.2-0.2-0.3-0.4-0.4-0.7H18.4c0,2.4,2.6,4.4,5.8,4.4h26l0,0
      c0.1,0.2,0.3,0.4,0.4,0.7c0.2,0.2,0.4,0.5,0.6,0.7l0,0c0.2,0.2,0.4,0.4,0.6,0.5c0,0,0.1,0,0.1,0.1c0.2,0.1,0.4,0.3,0.6,0.4
      c0.1,0,0.1,0.1,0.2,0.1L65.5,67c0.3,0.2,0.7,0.4,1.1,0.5c0.1,0.1,0.3,0.1,0.4,0.2c0.3,0.1,0.5,0.2,0.8,0.3c0.1,0,0.1,0,0.2,0.1
      c0.2,0.1,0.3,0.1,0.5,0.1c0.1,0,0.2,0.1,0.3,0.1c0.3,0.1,0.7,0.2,1.1,0.2v-4.4C69.6,64.1,69.3,64.1,68.9,64z M122.5,54.9H91.2
      c-0.2,1.4-1.3,2.8-3.2,3.9l-6.8,3.9c-0.5,0.3-0.9,0.5-1.4,0.7h-0.1c-0.5,0.2-1,0.4-1.5,0.5c-0.1,0-0.2,0-0.3,0.1
      c-0.5,0.1-0.9,0.2-1.4,0.3c-0.1,0-0.2,0-0.2,0c-0.6,0.1-1.2,0.1-1.7,0.2v4.4c0.2,0,0.4,0,0.5,0c0.4,0,0.7-0.1,1.1-0.1h0.1
      c0.1,0,0.2,0,0.2,0c0.2,0,0.5-0.1,0.7-0.1c0.2,0,0.5-0.1,0.7-0.2c0.1,0,0.2,0,0.3-0.1c0.1,0,0.1,0,0.2,0c0.5-0.1,0.9-0.3,1.3-0.4
      c0,0,0,0,0.1,0h0.1c0.5-0.2,1-0.4,1.4-0.7l6.8-3.9c1.9-1.1,2.9-2.5,3.2-3.9h27.9c1.9,0,3.5-1.2,3.5-2.6v-4.4L122.5,54.9z"/>
    <path fill="#FF65A7" d="M88.1,49.7l-12.8-7.3c-1.2-0.7-2.7-1.2-4.3-1.5L71.1,20l-4.4-0.1l-0.1,20.6c-2.5,0.1-4.9,0.7-6.7,1.8
      l-6.8,3.9c-1.9,1.1-3,2.5-3.2,3.9H18.6v2.6h31.9c0.5,0.9,1.4,1.8,2.6,2.5l12.8,7.4c1.2,0.7,2.7,1.2,4.3,1.5l-0.1,19.2h4.5l0.1-18.9
      c2.5-0.1,4.9-0.7,6.8-1.8l6.8-3.9c1.9-1.1,2.9-2.5,3.2-3.9h31.3v-2.7H90.9C90.2,51.5,89.3,50.5,88.1,49.7z"/>
    <path fill="#FAB802" d="M80.8,50.9l-8.3-3.8c-0.7-0.4-1.6-0.7-2.6-0.9c0,0-1.2-0.3-1.6-0.3c-0.4,0-1.6,0.1-1.6,0.1
      c-1.7,0.1-3.2,0.5-4.3,1.1L60,47.6c-1.9,1.1-1.6,4.6,0.3,5.7l8,4.7c0.7,0.4,1.5,0.8,2.6,0.9c0.8,0.1,1.4,0.2,3.2,0.2
      c1.7,0,3.2-0.5,4.3-1.1l2.1-1.2C82.5,55.6,82.7,52,80.8,50.9z"/>
    <path fill="#F6E000" d="M80.6,50.4l-8-4.7c-0.7-0.4-1.9-1.1-5.7-1.1c-1.7,0-3.2,0.5-4.3,1.1l-2.1,1.2c-1.9,1.1-1.9,3.9,0,5l8,4.7
      c0.7,0.4,1.5,0.8,2.6,0.9c0.8,0.1,2.4,0.2,3.2,0.2c1.7,0,3.2-0.5,4.3-1.1l2.1-1.2C82.5,54.3,82.5,51.6,80.6,50.4z"/>
  </g>
  <g id="rotors">
    <g transform="translate(51 70)">
      <path fill="#8CD5E8" d="M19.3,2.5C5.3,2.5,0.8,12,0.8,12s0,2.4,0,2.5c0.1,7.3,9.6,13.6,21.3,13.6c11,0,18.9-5.6,18.5-12.4v-1.4
        C40.5,14.3,37.8,2.5,19.3,2.5z M36.5,20.4c-2.7,3.3-8.2,5.3-14.5,5.3c-10,0-18.8-5.2-18.8-11.2c0-1.7,0.7-3.3,2.2-4.8
        C8.3,6.8,13.5,5,19.3,5C28.5,5,36.9,9.5,38,15.1C38.4,16.9,37.9,18.7,36.5,20.4z"/>
      <path fill="#455CA0" d="M20.9,17.2c-2.3,0-4.4-1.2-4.4-2.7c0,0,0,3.8,0,3.9c0.1,1.5,2.1,2.7,4.5,2.7c2.2,0,3.9-1.1,3.9-2.5v-3.8
        C24.8,16.1,23.1,17.2,20.9,17.2z"/>
      <path fill="#2AA8B4" d="M20.3,11.8c-2.3,0-4,1.2-3.9,2.7s2.1,2.7,4.5,2.7s4.1-1.2,3.9-2.7C24.6,13,22.6,11.8,20.3,11.8z"/>
      <path fill="#BD1757" d="M22,11.7c-0.9-0.5-2.2-0.5-3,0c-0.4,0.2-0.5,0.6-0.5,0.9v1.3c0,0.4,0.2,0.8,0.7,1.1c0.9,0.5,2.3,0.5,3,0
        c0.3-0.2,0.5-0.5,0.5-0.9v-1.3C22.7,12.4,22.5,12,22,11.7z"/>
      <path fill="#003689" d="M26.1,13.7c-0.2-0.1-0.6-0.2-0.8-0.1L24,14.1c-0.3,0.1-0.6,0.1-0.8-0.1l-1.6-1L10.3,6.3
        c-0.3-0.2-0.7-0.2-0.9,0l0,0C8.8,6.7,7.7,7.2,7.7,7.2S7.6,7.8,7.9,8l8.2,5c0.2,0.1,0.6,0.2,0.8,0.1l1.3-0.5
        c0.3-0.1,0.6-0.1,0.8,0.1l1.6,1l12,7.3c0.3,0.2,0.8,0.2,1,0l0,0c0.6-0.4,1.1-0.9,1.6-1.4c0.3-0.3,0.1-0.8,0.1-0.8L26.1,13.7z"/>
      <path fill="#FF65A7" d="M35,18.4l-8.9-5.3c-0.2-0.1-0.6-0.2-0.8-0.1L24,13.5c-0.3,0.1-0.6,0.1-0.8-0.1l-1.6-1L10.3,5.7
        C10.2,5.6,10,5.6,9.8,5.6s-0.3,0-0.5,0.1l0,0C8.7,6.1,8.2,6.5,7.7,6.9C7.5,7.1,7.6,7.3,7.8,7.4l8.2,5c0.2,0.1,0.6,0.2,0.8,0.1
        l1.3-0.5c0.3-0.1,0.6-0.1,0.8,0.1l1.6,1l12,7.3c0.3,0.2,0.8,0.2,1,0l0,0c0.6-0.4,1.1-0.9,1.6-1.4C35.4,18.8,35.3,18.6,35,18.4z"/>
      <path fill="#713D23" d="M22,11.7c-0.4-0.3-1-0.4-1.5-0.4s-1.1,0.1-1.5,0.4c-0.8,0.5-0.7,1.4,0.2,1.9c0.9,0.5,2.3,0.5,3,0
        C23,13.1,22.9,12.3,22,11.7z"/>
      <path fill="#FFFFFF" d="M19.3,0.5C9,0.5,0.7,5.7,0.8,12.5c0.1,7.3,9.6,13.6,21.3,13.6s19.8-6.3,18.3-13.6
        C39,5.7,29.6,0.5,19.3,0.5z M36.5,18.4c-2.7,3.3-8.2,5.3-14.5,5.3c-10,0-18.8-5.2-18.8-11.2c0-1.7,0.7-3.3,2.2-4.8
        C8.3,4.8,13.5,3,19.3,3C28.5,3,36.9,7.5,38,13.1C38.4,14.9,37.9,16.7,36.5,18.4z"/>
      <path fill="#F6E000" d="M38.5,6.6L37.1,7c1.3,1.5,2.2,3.2,2.6,5c0.4,1.8,0.2,3.5-0.5,5.2l1.7,0.4c0.8-1.8,0.9-3.7,0.5-5.6
        C40.9,10,40,8.2,38.5,6.6z"/>
      <path fill="#8CD5E8" d="M40.8,17.5l-1.7-0.4v0.4l0.8,0.2v1.5l0.8,0.2c0,0,0.7-1.6,0.7-3.7v-1.9C41.6,15.1,41.3,16.3,40.8,17.5z
        M37.1,6.9v0.4c1.3,1.5,2.2,3.2,2.6,5c0.1,0.5,0.2,1.1,0.2,1.6c0-0.7,0-1.4-0.2-2.1C39.3,10.1,38.5,8.5,37.1,6.9z"/>
    </g>
    <g transform="translate(0 32)">
      <path fill="#8CD5E8" d="M19.3,2.3c-14,0-18.5,9.5-18.5,9.5s0,2.4,0,2.5c0.1,7.3,9.6,13.6,21.3,13.6c11,0,18.9-5.6,18.5-12.4v-1.4
        C40.6,14.1,37.8,2.3,19.3,2.3z M36.6,20.2c-2.7,3.3-8.2,5.3-14.5,5.3c-10,0-18.8-5.2-18.8-11.2c0-1.7,0.7-3.3,2.2-4.8
        c2.9-2.9,8.1-4.7,13.9-4.7c9.2,0,17.6,4.5,18.7,10.1C38.4,16.7,37.9,18.5,36.6,20.2z"/>
      <polygon fill="#616161" points="16.3,14 16.3,13.9 16.3,13.9 		"/>
      <path fill="#455CA0" d="M21,17c-2.3,0-4.4-1.2-4.4-2.7c0,0,0,3.8,0,3.9c0.1,1.5,2.1,2.7,4.5,2.7c2.2,0,3.9-1.1,3.9-2.5v-3.8
        C24.8,15.9,23.2,17,21,17z"/>
      <path fill="#2AA8B4" d="M20.3,11.6c-2.3,0-4,1.2-3.9,2.7s2.1,2.7,4.5,2.7c2.3,0,4.1-1.2,3.9-2.7C24.6,12.8,22.6,11.6,20.3,11.6z"
        />
      <path fill="#BD1757" d="M22,11.5c-0.9-0.5-2.2-0.5-3,0c-0.4,0.2-0.5,0.6-0.5,0.9v1.3c0,0.4,0.2,0.8,0.7,1.1c0.9,0.5,2.3,0.5,3,0
        c0.3-0.2,0.5-0.5,0.5-0.9v-1.3C22.8,12.2,22.5,11.8,22,11.5z"/>
      <path fill="#003689" d="M26.1,13.5c-0.2-0.1-0.6-0.2-0.8-0.1L24,13.9c-0.3,0.1-0.6,0.1-0.8-0.1L10.4,6.1c-0.3-0.2-0.7-0.2-0.9,0
        l0,0C8.9,6.5,7.8,7,7.8,7S7.7,7.6,8,7.8l8.2,5c0.2,0.1,0.6,0.2,0.8,0.1l1.3-0.5c0.3-0.1,0.6-0.1,0.8,0.1l13.6,8.2
        c0.3,0.2,0.8,0.2,1,0l0,0c0.6-0.4,1.1-0.9,1.6-1.4c0.3-0.3,0.1-0.8,0.1-0.8L26.1,13.5z"/>
      <path fill="#FF65A7" d="M35,18.2l-8.9-5.3c-0.2-0.1-0.6-0.2-0.8-0.1L24,13.3c-0.3,0.1-0.6,0.1-0.8-0.1l-1.6-1L10.3,5.5
        C10.2,5.4,10,5.4,9.8,5.4s-0.3,0-0.5,0.1l0,0C8.7,5.9,8.2,6.3,7.7,6.7C7.5,6.9,7.6,7.1,7.8,7.2l8.2,5c0.2,0.1,0.6,0.2,0.8,0.1
        l1.3-0.5c0.3-0.1,0.6-0.1,0.8,0.1l1.6,0.9l12,7.3c0.3,0.2,0.8,0.2,1,0l0,0c0.6-0.4,1.1-0.9,1.6-1.4C35.4,18.6,35.3,18.4,35,18.2z"
        />
      <path fill="#713D23" d="M22,11.5c-0.4-0.3-1-0.4-1.5-0.4s-1.1,0.1-1.5,0.4c-0.8,0.5-0.7,1.4,0.2,1.9c0.9,0.5,2.3,0.5,3,0
        C23,12.9,22.9,12,22,11.5z"/>
      <path fill="#FFFFFF" d="M19.3,0.3C9,0.3,0.7,5.5,0.8,12.3c0.1,7.3,9.6,13.6,21.3,13.6s19.8-6.3,18.3-13.6
        C39,5.5,29.6,0.3,19.3,0.3z M36.6,18.1c-2.7,3.3-8.2,5.3-14.5,5.3c-10,0-18.8-5.2-18.8-11.2c0-1.7,0.7-3.3,2.2-4.8
        c2.9-2.9,8.1-4.7,13.9-4.7c9.2,0,17.6,4.5,18.7,10.1C38.4,14.7,37.9,16.5,36.6,18.1z"/>
      <path fill="#F6E000" d="M38.6,6.3l-1.4,0.4c1.3,1.5,2.2,3.2,2.6,5c0.4,1.8,0.2,3.5-0.5,5.2l1.7,0.4c0.8-1.8,0.9-3.7,0.5-5.6
        C41,9.8,40,8,38.6,6.3z"/>
      <path fill="#8CD5E8" d="M40.9,17.3l-1.7-0.4v0.4l0.8,0.2V19l0.8,0.2c0,0,0.7-1.6,0.7-3.7v-1.9C41.6,14.9,41.4,16.1,40.9,17.3z
        M37.2,6.7v0.4c1.3,1.5,2.2,3.2,2.6,5c0.1,0.6,0.2,1.1,0.2,1.6c0-0.7,0-1.4-0.2-2.1C39.4,9.9,38.5,8.3,37.2,6.7z"/>
    </g>
    <g transform="translate(48)">
      <path fill="#8CD5E8" d="M19.3,2.8c-14,0-18.5,9.5-18.5,9.5s0,2.4,0,2.5c0.1,7.3,9.6,13.6,21.3,13.6c11,0,18.9-5.6,18.5-12.4v-1.4
        C40.5,14.6,37.7,2.8,19.3,2.8z M36.5,20.6c-2.7,3.3-8.2,5.3-14.5,5.3c-10,0-18.8-5.2-18.8-11.2c0-1.7,0.7-3.3,2.2-4.8
        C8.3,7,13.5,5.2,19.3,5.2c9.2,0,17.6,4.5,18.7,10.1C38.3,17.1,37.8,18.9,36.5,20.6z"/>
      <path fill="#455CA0" d="M20.9,17.4c-2.3,0-4.4-1.2-4.4-2.7c0,0,0,3.8,0,3.9c0.1,1.5,2.1,2.7,4.5,2.7c2.2,0,3.9-1.1,3.9-2.5V15
        C24.7,16.3,23.1,17.4,20.9,17.4z"/>
      <path fill="#2AA8B4" d="M20.3,12c-2.3,0-4,1.2-3.9,2.7s2.1,2.7,4.5,2.7s4.1-1.2,3.9-2.7C24.6,13.2,22.6,12,20.3,12z"/>
      <path fill="#BD1757" d="M22,12c-0.9-0.5-2.2-0.5-3,0c-0.4,0.2-0.5,0.6-0.5,0.9v1.3c0,0.4,0.2,0.8,0.7,1.1c0.9,0.5,2.3,0.5,3,0
        c0.3-0.2,0.5-0.5,0.5-0.9v-1.3C22.7,12.6,22.5,12.3,22,12z"/>
      <path fill="#003689" d="M26,13.9c-0.2-0.1-0.6-0.2-0.8-0.1l-1.3,0.5c-0.3,0.1-0.6,0.1-0.8-0.1l-1.6-1L10.2,6.5
        c-0.3-0.2-0.7-0.2-0.9,0l0,0C8.7,6.9,7.6,7.4,7.6,7.4S7.5,8,7.8,8.2l8.2,5c0.2,0.1,0.6,0.2,0.8,0.1l1.3-0.5
        c0.3-0.1,0.6-0.1,0.8,0.1l1.6,1l12,7.3c0.3,0.2,0.8,0.2,1,0l0,0c0.6-0.4,1.1-0.9,1.6-1.4c0.3-0.3,0.1-0.8,0.1-0.8L26,13.9z"/>
      <path fill="#FF65A7" d="M35,18.7l-8.9-5.3c-0.2-0.1-0.6-0.2-0.8-0.1L24,13.8c-0.3,0.1-0.6,0.1-0.8-0.1l-1.6-1L10.2,6
        c-0.1-0.1-0.3-0.1-0.5-0.1S9.4,5.9,9.2,6l0,0C8.6,6.4,8.1,6.8,7.6,7.2C7.4,7.4,7.5,7.6,7.7,7.7l8.2,5c0.2,0.1,0.6,0.2,0.8,0.1
        l1.3-0.5c0.3-0.1,0.6-0.1,0.8,0.1l1.6,1l12,7.3c0.3,0.2,0.8,0.2,1,0l0,0c0.6-0.4,1.1-0.9,1.6-1.4C35.3,19.1,35.2,18.8,35,18.7z"/>
      <path fill="#713D23" d="M22,12c-0.4-0.3-1-0.4-1.5-0.4S19.4,11.7,19,12c-0.8,0.5-0.7,1.4,0.2,1.9c0.9,0.5,2.3,0.5,3,0
        C23,13.4,22.9,12.5,22,12z"/>
      <path fill="#FFFFFF" d="M19.3,0.7C9,0.7,0.7,5.9,0.8,12.7c0.1,7.3,9.6,13.6,21.3,13.6S41.9,20,40.4,12.7
        C38.9,5.9,29.5,0.7,19.3,0.7z M36.5,18.6c-2.7,3.3-8.2,5.3-14.5,5.3c-10,0-18.8-5.2-18.8-11.2c0-1.7,0.7-3.3,2.2-4.8
        C8.3,5,13.5,3.2,19.3,3.2c9.2,0,17.6,4.5,18.7,10.1C38.3,15.1,37.8,16.9,36.5,18.6z"/>
      <path fill="#F6E000" d="M38.5,6.8l-1.4,0.4c1.3,1.5,2.2,3.2,2.6,5c0.4,1.8,0.2,3.5-0.5,5.2l1.7,0.4c0.8-1.8,0.9-3.7,0.5-5.6
        C40.9,10.2,40,8.4,38.5,6.8z"/>
      <path fill="#8CD5E8" d="M40.8,17.8l-1.7-0.4v0.4l0.8,0.2v1.5l0.8,0.2c0,0,0.7-1.6,0.7-3.7v-1.9C41.5,15.3,41.3,16.6,40.8,17.8z
        M37.1,7.2v0.4c1.3,1.5,2.2,3.2,2.6,5c0.1,0.5,0.2,1.1,0.2,1.6c0-0.7,0-1.4-0.2-2.1C39.3,10.4,38.4,8.7,37.1,7.2z"/>
    </g>
    <g transform="translate(100 35)">
      <path fill="#8CD5E8" d="M19.4,3c-14,0-18.5,9.5-18.5,9.5s0,2.4,0,2.5c0.1,7.3,9.6,13.6,21.3,13.6c11,0,18.9-5.6,18.5-12.4v-1.4
        C40.7,14.8,37.9,3,19.4,3z M36.7,20.8c-2.7,3.3-8.2,5.3-14.5,5.3c-10,0-18.8-5.2-18.8-11.2c0-1.7,0.7-3.3,2.2-4.8
        c2.9-2.9,8.1-4.7,13.9-4.7c9.2,0,17.6,4.5,18.7,10.1C38.5,17.3,38,19.1,36.7,20.8z"/>
      <path fill="#455CA0" d="M21.1,17.6c-2.3,0-4.4-1.2-4.4-2.7c0,0,0,3.8,0,3.9c0.1,1.5,2.1,2.7,4.5,2.7c2.2,0,3.9-1.1,3.9-2.5v-3.8
        C24.9,16.5,23.3,17.6,21.1,17.6z"/>
      <path fill="#2AA8B4" d="M20.4,12.2c-2.3,0-4,1.2-3.9,2.7s2.1,2.7,4.5,2.7s4.1-1.2,3.9-2.7C24.7,13.4,22.7,12.2,20.4,12.2z"/>
      <path fill="#BD1757" d="M22.1,12.2c-0.9-0.5-2.2-0.5-3,0c-0.4,0.2-0.5,0.6-0.5,0.9v1.3c0,0.4,0.2,0.8,0.7,1.1c0.9,0.5,2.3,0.5,3,0
        c0.3-0.2,0.5-0.5,0.5-0.9v-1.3C22.9,12.8,22.6,12.4,22.1,12.2z"/>
      <path fill="#003689" d="M26.2,14.1C26,14,25.6,13.9,25.4,14l-1.3,0.5c-0.3,0.1-0.6,0.1-0.8-0.1l-1.6-1L10.4,6.7
        c-0.3-0.2-0.7-0.2-0.9,0l0,0C8.9,7.1,7.8,7.6,7.8,7.6S7.7,8.2,8,8.4l8.2,5c0.2,0.1,0.6,0.2,0.8,0.1l1.3-0.5
        c0.3-0.1,0.6-0.1,0.8,0.1l1.6,1l12,7.3c0.3,0.2,0.8,0.2,1,0l0,0c0.6-0.4,1.1-0.9,1.6-1.4c0.3-0.3,0.1-0.8,0.1-0.8L26.2,14.1z"/>
      <path fill="#FF65A7" d="M35.2,18.8l-8.9-5.3c-0.2-0.1-0.6-0.2-0.8-0.1L24,14c-0.3,0.1-0.6,0.1-0.8-0.1l-1.6-1L10.3,6.2
        C10.2,6.1,10,6.1,9.8,6.1s-0.3,0-0.5,0.1l0,0C8.7,6.6,8.2,7,7.7,7.4C7.5,7.6,7.6,7.8,7.8,7.9l8.2,5c0.2,0.1,0.6,0.2,0.8,0.1
        l1.3-0.5c0.3-0.1,0.6-0.1,0.8,0.1l1.6,1l12,7.3c0.3,0.2,0.8,0.2,1,0l0,0c0.6-0.4,1.1-0.9,1.6-1.4C35.5,19.3,35.4,19,35.2,18.8z"/>
      <path fill="#713D23" d="M22.1,12.2c-0.4-0.3-1-0.4-1.5-0.4s-1.1,0.1-1.5,0.4c-0.8,0.5-0.7,1.4,0.2,1.9c0.9,0.5,2.3,0.5,3,0
        C23.1,13.6,23,12.7,22.1,12.2z"/>
      <path fill="#FFFFFF" d="M19.4,0.9c-10.3,0-18.6,5.2-18.5,12c0.1,7.3,9.6,13.6,21.3,13.6S42,20.2,40.5,12.9
        C39.1,6.1,29.7,0.9,19.4,0.9z M36.7,18.8c-2.7,3.3-8.2,5.3-14.5,5.3c-10,0-18.8-5.2-18.8-11.2c0-1.7,0.7-3.3,2.2-4.8
        c2.9-2.9,8.1-4.7,13.9-4.7c9.2,0,17.6,4.5,18.7,10.1C38.5,15.3,38,17.1,36.7,18.8z"/>
      <path fill="#F6E000" d="M38.7,7l-1.4,0.4c1.3,1.5,2.2,3.2,2.6,5c0.4,1.8,0.2,3.5-0.5,5.2l1.7,0.4c0.8-1.8,0.9-3.7,0.5-5.6
        C41.1,10.4,40.1,8.6,38.7,7z"/>
      <path fill="#8CD5E8" d="M41,17.9l-1.7-0.4v0.4l0.8,0.2v1.5l0.8,0.2c0,0,0.7-1.6,0.7-3.7v-1.9C41.7,15.5,41.5,16.8,41,17.9z
        M37.3,7.4v0.4c1.3,1.5,2.2,3.2,2.6,5c0.1,0.5,0.2,1.1,0.2,1.6c0-0.7,0-1.4-0.2-2.1C39.5,10.6,38.6,8.9,37.3,7.4z"/>
    </g>
  </g>
</svg>
