<svg xmlns="http://www.w3.org/2000/svg" width="64px" height="129px" viewBox="0 0 64 129">
  <path fill="#FAB802" d="M4.8,32.8v28.8H0V36.4c0-0.3,0.1-0.5,0.3-0.6L4.8,32.8z"/>
  <path fill="#FF9E19" d="M5.3,32.9l19.5,11.5c0.3,0.2,0.5,0.5,0.5,0.8v9.2l37.3,21.9c0.8,0.4,1.5,1.6,1.3,2.5v45.7
    c0,0.9-0.7,1.4-1.6,0.8l-56.3-33c-0.8-0.4-1.5-1.6-1.3-2.5V33.1C4.8,32.8,5,32.7,5.3,32.9z"/>
  <polygon fill="#DBF8FE" points="17.8,4.9 13.2,2.1 13.2,0.7 17.8,3.6 "/>
  <polygon fill="#C4EAF5" points="23.1,11.3 13.2,5.2 13.2,4 23.1,9.9 "/>
  <polygon fill="#DBF8FE" points="23.8,14.9 15.7,9.9 15.7,8.6 23.8,13.6 "/>
  <polygon fill="#DBF8FE" points="23.8,18 15.7,13.1 15.7,11.8 23.8,16.7 "/>
  <polygon fill="#DBF8FE" points="29.1,24.5 21.3,19.7 21.3,18.4 29.1,23.2 "/>
  <polygon fill="#C4EAF5" points="35.4,15.6 20.8,6.6 20.8,5.3 35.4,14.3 "/>
  <polygon fill="#C4EAF5" points="44.4,21.1 37.5,16.8 37.5,15.6 44.4,19.9 "/>
  <polygon fill="#C4EAF5" points="56.6,28.6 47.2,22.7 47.2,21.4 56.6,27.2 "/>
  <polygon fill="#DBF8FE" points="33.6,17.7 25.5,12.7 25.5,11.4 33.6,16.4 "/>
  <polygon fill="#C4EAF5" points="30.9,19.2 26.2,16.3 26.2,15.1 30.9,18 "/>
  <polygon fill="#C4EAF5" points="34.4,24.5 26.2,19.6 26.2,18.2 34.4,23.2 "/>
  <polygon fill="#C4EAF5" points="42.2,26 33.2,20.6 33.2,19.4 42.2,24.8 "/>
  <polygon fill="#C4EAF5" points="48.7,30 44,27.2 44,25.9 48.7,28.8 "/>
  <polygon fill="#C4EAF5" points="56.6,34.8 50.7,31.3 50.7,30 56.6,33.6 "/>
  <polygon fill="#C4EAF5" points="46.3,31.8 36.2,25.5 36.2,24.3 46.3,30.5 "/>
  <polygon fill="#C4EAF5" points="50.9,34.6 47.9,32.7 47.9,31.5 50.9,33.3 "/>
  <polygon fill="#C4EAF5" points="37.3,29.4 31.4,25.8 31.4,24.6 37.3,28.1 "/>
  <polygon fill="#DBF8FE" points="23.8,27.5 15.7,22.6 15.7,21.3 23.8,26.3 "/>
  <polygon fill="#DBF8FE" points="23.8,30.8 15.7,25.8 15.7,24.5 23.8,29.5 "/>
  <polygon fill="#C4EAF5" points="30.9,31.9 26.2,29.1 26.2,27.8 30.9,30.7 "/>
  <polygon fill="#C4EAF5" points="33.5,36.7 26.2,32.2 26.2,31 33.5,35.5 "/>
  <polygon fill="#C4EAF5" points="40.1,37.6 33.2,33.4 33.2,32 40.1,36.3 "/>
  <polygon fill="#C4EAF5" points="45.2,40.6 41.5,38.4 41.5,37.1 45.2,39.3 "/>
  <polygon fill="#C4EAF5" points="51.1,44.3 46.6,41.5 46.6,40.3 51.1,43 "/>
  <polygon fill="#C4EAF5" points="48.7,45.9 40.7,41 40.7,39.8 48.7,44.7 "/>
  <polygon fill="#DBF8FE" points="23.8,33.9 15.7,29 15.7,27.7 23.8,32.6 "/>
  <polygon fill="#DBF8FE" points="23.8,37.1 15.7,32.1 15.7,30.9 23.8,35.8 "/>
  <polygon fill="#C4EAF5" points="30.9,38.3 26.2,35.5 26.2,34.1 30.9,37 "/>
  <polygon fill="#C4EAF5" points="41.1,47.7 26.2,38.6 26.2,37.3 41.1,46.3 "/>
  <polygon fill="#C4EAF5" points="42.2,45.2 33.2,39.6 33.2,38.4 42.2,43.8 "/>
  <polygon fill="#C4EAF5" points="48.7,49.2 44,46.2 44,45 48.7,47.8 "/>
  <polygon fill="#C4EAF5" points="56.6,54 50.7,50.4 50.7,49.1 56.6,52.6 "/>
  <polygon fill="#C4EAF5" points="51.1,53.9 42.9,48.8 42.9,47.5 51.1,52.5 "/>
  <polygon fill="#C4EAF5" points="38.6,39.8 35.1,37.7 35.1,36.4 38.6,38.5 "/>
  <polygon fill="#DBF8FE" points="17.8,39.9 13.2,37 13.2,35.7 17.8,38.5 "/>
  <polygon fill="#C4EAF5" points="23.1,46.2 13.2,40.2 13.2,38.9 23.1,45 "/>
  <polygon fill="#DBF8FE" points="23.8,49.8 15.7,44.9 15.7,43.6 23.8,48.5 "/>
  <polygon fill="#DBF8FE" points="23.8,53 15.7,48 15.7,46.8 23.8,51.7 "/>
  <polygon fill="#DBF8FE" points="29.1,59.4 21.3,54.7 21.3,53.4 29.1,58.2 "/>
  <polygon fill="#C4EAF5" points="28.8,46.6 20.8,41.6 20.8,40.3 28.8,45.3 "/>
  <polygon fill="#C4EAF5" points="35,50.3 30.9,47.8 30.9,46.6 35,49.1 "/>
  <polygon fill="#C4EAF5" points="50.7,59.9 37.7,52 37.7,50.6 50.7,58.7 "/>
  <polygon fill="#DBF8FE" points="33.6,52.6 25.5,47.6 25.5,46.3 33.6,51.4 "/>
  <polygon fill="#C4EAF5" points="35.4,56.9 26.2,51.4 26.2,50 35.4,55.7 "/>
  <polygon fill="#C4EAF5" points="32.5,58.4 26.2,54.5 26.2,53.2 32.5,57 "/>
  <polygon fill="#C4EAF5" points="44.5,62.5 37.7,58.4 37.7,57 44.5,61.2 "/>
  <polygon fill="#C4EAF5" points="46.3,66.7 34.4,59.4 34.4,58.2 46.3,65.5 "/>
  <polygon fill="#C4EAF5" points="50.9,69.6 47.9,67.7 47.9,66.4 50.9,68.3 "/>
  <polygon fill="#C4EAF5" points="37.3,64.4 31.4,60.9 31.4,59.5 37.3,63.1 "/>
  <polygon fill="#C4EAF5" points="49.5,71.9 38.6,65.2 38.6,63.9 49.5,70.6 "/>
  <polygon fill="#C4EAF5" points="54.3,74.8 51,72.8 51,71.6 54.3,73.5 "/>
  <polygon fill="#DBF8FE" points="23.8,62.6 15.7,57.6 15.7,56.3 23.8,61.2 "/>
  <polygon fill="#DBF8FE" points="23.8,65.7 15.7,60.8 15.7,59.5 23.8,64.4 "/>
  <polygon fill="#C4EAF5" points="39.5,72.2 26.2,64 26.2,62.8 39.5,70.9 "/>
  <polygon fill="#C4EAF5" points="33.5,71.7 26.2,67.3 26.2,65.9 33.5,70.4 "/>
  <polygon fill="#C4EAF5" points="45.2,75.5 41.5,73.3 41.5,72.1 45.2,74.3 "/>
  <polygon fill="#C4EAF5" points="51.1,79.3 46.6,76.6 46.6,75.2 51.1,77.9 "/>
  <polygon fill="#C4EAF5" points="48.7,81 40.7,76 40.7,74.7 48.7,79.6 "/>
  <polygon fill="#C4EAF5" points="38.6,74.8 35.1,72.7 35.1,71.3 38.6,73.4 "/>
  <polygon fill="#DBF8FE" points="17.8,67.3 13.2,64.4 13.2,63.2 17.8,66 "/>
  <polygon fill="#C4EAF5" points="23.1,73.6 13.2,67.7 13.2,66.3 23.1,72.4 "/>
  <polygon fill="#DBF8FE" points="23.8,77.3 15.7,72.4 15.7,71 23.8,76 "/>
  <polygon fill="#DBF8FE" points="23.8,80.4 15.7,75.5 15.7,74.3 23.8,79.2 "/>
  <polygon fill="#DBF8FE" points="29.1,86.9 21.3,82.1 21.3,80.9 29.1,85.7 "/>
  <polygon fill="#C4EAF5" points="28.8,74.1 20.8,69 20.8,67.8 28.8,72.7 "/>
  <polygon fill="#C4EAF5" points="35,77.8 30.9,75.3 30.9,74.1 35,76.5 "/>
  <polygon fill="#C4EAF5" points="56.6,90.9 37.7,79.4 37.7,78.1 56.6,89.7 "/>
  <polygon fill="#DBF8FE" points="33.6,80.1 25.5,75.1 25.5,73.9 33.6,78.9 "/>
  <polygon fill="#C4EAF5" points="35.4,84.4 26.2,78.8 26.2,77.5 35.4,83.2 "/>
  <polygon fill="#C4EAF5" points="32.5,85.8 26.2,82 26.2,80.7 32.5,84.5 "/>
  <polygon fill="#C4EAF5" points="44.5,90 37.7,85.8 37.7,84.5 44.5,88.7 "/>
  <polygon fill="#C4EAF5" points="50.5,93.6 46.3,91.1 46.3,89.8 50.5,92.4 "/>
  <polygon fill="#C4EAF5" points="46.3,94.3 34.4,86.9 34.4,85.6 46.3,93 "/>
  <polygon fill="#C4EAF5" points="37.3,91.9 31.4,88.3 31.4,87 37.3,90.6 "/>
  <path fill="#FAB802" d="M64,123.9c0,0.7-0.4,1.5-1.1,1.8l-3.7,2.3V81.3l4.8-2.9V123.9z"/>
  <path fill="#F6E000" d="M0.5,36.1L20,47.5c0.3,0.2,0.5,0.5,0.5,0.8v9.2l37.3,21.9c0.8,0.4,1.5,1.6,1.3,2.5v45.7
    c0,0.9-0.7,1.4-1.6,0.8l-56.3-33C0.5,95.2-0.1,94,0,93V36.3C0,36.1,0.3,35.9,0.5,36.1z"/>
  <path fill="#016DB6" d="M41,101l12.7,7.7c0.4,0.2,0.6,0.6,0.6,1.1v9c0,1-1,1.6-1.8,1.1l-12.7-7.5c-0.4-0.2-0.6-0.6-0.6-1.1v-9
    C39.2,101.1,40.2,100.5,41,101z"/>
  <polygon fill="#FFFFFF" points="44.8,108.8 40.8,106.2 40.8,104.8 44.8,107.4 "/>
  <polygon fill="#FFFFFF" points="51.2,112.8 46.4,110.1 46.4,108.8 51.2,111.5 "/>
  <polygon fill="#FFFFFF" points="49.6,115.2 40.8,110.1 40.8,108.8 49.6,113.9 "/>
</svg>
