<svg xmlns="http://www.w3.org/2000/svg" width="65" height="67" viewBox="0 0 65 67">
  <g fill="none">
    <path fill="#A7D6E0" d="M50 4.6C50 4.6 50 4.6 50 4.6 49.9 4.8 49.9 4.9 49.9 5L49.9 35.7C49.9 35.6 49.9 35.5 50 35.3L50.6 34.6C50.6 34.6 50.6 34.5 50.7 34.5 50.7 34.4 50.8 34.3 50.8 34.2L50.8 3.5C50.8 3.6 50.8 3.7 50.7 3.8L50 4.6zM15.1 4.6L14.3 3.9C14.2 3.8 14.1 3.7 14.1 3.6L14.1 34.3C14.1 34.4 14.1 34.5 14.2 34.6 14.2 34.6 14.2 34.7 14.3 34.7L15.1 35.4C15.2 35.5 15.3 35.6 15.3 35.8L15.3 5C15.2 4.9 15.2 4.8 15.1 4.6 15.1 4.7 15.1 4.6 15.1 4.6z"/>
    <path fill="#C4EAF5" d="M5.6,11.3 L4.4,10.8 C4,10.6 3.8,10.4 3.8,10.1 L3.8,40.8 C3.8,41.1 4,41.3 4.4,41.5 L5.6,42 C6.1,42.2 6.3,42.5 6.3,42.8 L6.3,12.1 C6.3,11.8 6,11.4 5.6,11.3 Z"/>
    <path fill="#A7D6E0" d="M43.1,7.4 C35.9,5.1 27.7,5.3 20.6,7.9 C16.2,9.6 11.4,12.8 11.3,18 C11.2,25.4 11.3,32.8 11.3,40.3 C11.3,43 11.3,45.7 11.3,48.4 C11.3,43.9 15.8,40.7 19.5,39.1 C23.7,37.3 28.3,36.6 32.8,36.6 C37.9,36.6 43.3,37.6 47.8,40.2 C50.8,41.9 53.7,44.7 53.7,48.4 C53.7,38.2 54,27.9 53.7,17.7 C53.7,12.1 47.8,8.9 43.1,7.4 Z"/>
    <path fill="#C4EAF5" d="M39.8,18.4 C39.8,18.5 39.7,18.7 39.6,18.8 C39.6,18.9 39.5,18.9 39.5,19 C39.4,19.2 39.2,19.5 39,19.7 C38.9,19.8 38.8,19.9 38.7,20 C38.6,20.1 38.5,20.1 38.4,20.2 C38.3,20.3 38.2,20.3 38,20.4 C37.9,20.5 37.8,20.5 37.7,20.6 C37.7,20.6 37.7,20.6 37.6,20.6 C37.3,20.8 37,20.9 36.7,21 C36.6,21 36.5,21.1 36.4,21.1 C36,21.2 35.7,21.3 35.3,21.4 C35.3,21.4 35.3,21.4 35.3,21.4 C34.9,21.5 34.5,21.5 34.1,21.6 C34,21.6 33.9,21.6 33.8,21.6 C33.4,21.6 33,21.7 32.5,21.7 C31.3,21.7 30,21.5 28.9,21.2 C26.5,20.4 25.2,19.1 25.2,17.7 L25.2,48.4 C25.2,49.8 26.5,51.2 28.9,51.9 C30,52.3 31.3,52.4 32.5,52.4 C32.9,52.4 33.3,52.4 33.8,52.3 C33.9,52.3 34,52.3 34.1,52.3 C34.5,52.3 34.9,52.2 35.3,52.1 C35.3,52.1 35.3,52.1 35.3,52.1 C35.7,52 36.1,51.9 36.4,51.8 C36.5,51.8 36.6,51.7 36.7,51.7 C37,51.6 37.3,51.4 37.6,51.3 C37.6,51.3 37.6,51.3 37.7,51.3 C37.7,51.3 37.7,51.3 37.7,51.3 C37.8,51.2 37.9,51.2 38,51.1 C38.1,51 38.2,51 38.4,50.9 C38.5,50.8 38.6,50.8 38.7,50.7 C38.8,50.6 38.9,50.5 39,50.5 C39,50.5 39,50.5 39,50.5 C39.2,50.3 39.4,50.1 39.5,49.8 C39.5,49.8 39.5,49.7 39.6,49.7 C39.6,49.7 39.6,49.6 39.6,49.6 C39.7,49.5 39.7,49.3 39.8,49.2 C39.8,49.1 39.8,49.1 39.9,49 C39.9,48.8 40,48.6 40,48.4 L40,17.7 C40,17.9 40,18.1 39.9,18.3 C39.8,18.3 39.8,18.3 39.8,18.4 Z"/>
    <path fill="#DBF8FE" d="M36.2,14.1 C35.1,13.7 33.8,13.6 32.6,13.6 C30.1,13.6 27.6,14.3 26.2,15.6 C24.2,17.5 25.4,20 28.9,21.1 C30,21.5 31.3,21.6 32.5,21.6 C35,21.6 37.5,20.9 38.9,19.6 C41,17.7 39.7,15.2 36.2,14.1 Z"/>
    <path fill="#A7D6E0" d="M64.4 18.9C64.3 19 64.3 19 64.2 19.1 64.2 19.1 64.2 19.1 64.1 19.1 64 19.1 63.9 19.2 63.8 19.2 63.8 19.2 63.7 19.2 63.7 19.3 63.5 19.3 63.4 19.4 63.2 19.4L61.8 19.5C61.6 19.5 61.5 19.5 61.3 19.6L61.3 10C61.3 10.1 61.2 10.2 61.2 10.4 61.2 10.4 61.2 10.4 61.2 10.4 61.1 10.5 61 10.6 60.8 10.7L59.6 11.2C59.5 11.2 59.5 11.3 59.4 11.3 59.4 11.3 59.4 11.3 59.3 11.3 59.2 11.3 59.2 11.4 59.2 11.4 59.2 11.4 59.1 11.4 59.1 11.5 59.1 11.5 59.1 11.5 59.1 11.5 59.1 11.5 59 11.6 59 11.6 59 11.6 59 11.6 58.9 11.7 58.9 11.7 58.9 11.7 58.9 11.7 58.9 11.8 58.8 11.9 58.8 12L58.8 42.7C58.8 42.6 58.8 42.5 58.9 42.4 58.9 42.4 58.9 42.4 58.9 42.3L58.9 53.9C58.9 53.8 58.9 53.7 59 53.6 59.1 53.4 59.2 53.3 59.3 53.1 59.4 52.9 59.5 52.7 59.6 52.6 59.7 52.5 59.7 52.4 59.8 52.2 60 51.8 60.1 51.4 60.3 51 60.3 50.9 60.4 50.8 60.5 50.7 60.5 50.7 60.5 50.7 60.5 50.7 60.6 50.6 60.7 50.5 60.8 50.5 60.9 50.5 61 50.4 61.1 50.4 61.2 50.4 61.2 50.4 61.3 50.3 61.5 50.3 61.6 50.2 61.8 50.2L63.2 50.1C63.4 50.1 63.5 50.1 63.7 50 63.8 50 63.8 50 63.8 49.9 63.9 49.9 64 49.8 64 49.8 64 49.8 64 49.8 64 49.8 64 49.8 64 49.8 64.1 49.8 64.2 49.8 64.2 49.7 64.2 49.7 64.2 49.7 64.2 49.7 64.3 49.6 64.3 49.6 64.3 49.6 64.3 49.6 64.3 49.6 64.3 49.6 64.3 49.6 64.3 49.5 64.4 49.4 64.4 49.4L64.4 18.7C64.5 18.7 64.5 18.8 64.4 18.9 64.4 18.9 64.4 18.9 64.4 18.9zM5 20.4C4.9 20 4.2 19.7 3.5 19.6L2.1 19.5C1.4 19.5.8 19.1.8 18.7L.8 16.6C.8 16.6.8 16.6.8 16.6L.8 47.3C.8 47.3.8 47.3.8 47.3L.8 49.4C.8 49.8 1.4 50.2 2.1 50.2L3.5 50.3C4.2 50.3 4.9 50.7 5 51.1 5.3 52 5.7 52.9 6.3 53.7 6.4 53.8 6.4 53.9 6.4 54L6.4 23.3C6.4 23.2 6.4 23.1 6.3 23 5.8 22.2 5.3 21.3 5 20.4z"/>
    <path fill="#C4EAF5" d="M61.3 25.5L59.5 27.3 59.5 58 61.3 56.2C61.3 56.2 61.4 56.1 61.4 56.1 61.4 56.1 61.4 56.1 61.4 56.1 61.4 56 61.5 55.9 61.5 55.9L61.5 25.2C61.5 25.3 61.5 25.4 61.4 25.4 61.4 25.4 61.3 25.5 61.3 25.5zM7.3 27.8C6.8 27.8 6.3 27.7 6 27.4L4.1 25.6C4 25.5 3.9 25.3 3.9 25.2L3.9 56C3.9 56.1 4 56.3 4.1 56.4L6 58.2C6.3 58.4 6.7 58.6 7.3 58.6 7.5 58.6 7.7 58.6 7.9 58.5L9.2 58.2 9.2 27.5 7.9 27.8C7.7 27.8 7.5 27.8 7.3 27.8z"/>
    <path fill="#A7D6E0" d="M58.8 27.6C58.6 27.7 58.4 27.7 58.1 27.7 57.9 27.7 57.7 27.7 57.5 27.6L56.2 27.3C56 27.2 55.8 27.2 55.5 27.2 55.3 27.2 55 27.2 54.8 27.3 54.7 27.3 54.7 27.3 54.6 27.4 54.5 27.4 54.3 27.5 54.2 27.5 54.2 27.5 54.1 27.5 54.1 27.6 53.5 28 52.9 28.4 52.2 28.7 51.7 29 51.2 29.3 50.6 29.5 50.6 29.5 50.6 29.5 50.5 29.5 50.4 29.6 50.3 29.6 50.2 29.7 50.2 29.7 50.2 29.8 50.1 29.8 50.1 29.8 50.1 29.8 50.1 29.9 50.1 29.9 50.1 29.9 50 30 49.9 30.1 49.9 30.2 49.9 30.3L49.9 61C49.9 60.9 50 60.7 50.1 60.6 50.1 60.6 50.1 60.6 50.1 60.5 50.2 60.4 50.3 60.3 50.5 60.2 51 60 51.5 59.7 51.9 59.5 52 59.5 52 59.4 52.1 59.4 52.7 59 53.4 58.7 54 58.3 54.1 58.2 54.3 58.2 54.5 58.1 54.6 58.1 54.6 58 54.7 58 54.9 57.9 55.2 57.9 55.4 57.9 55.6 57.9 55.8 57.9 56.1 58L57.4 58.3C57.6 58.3 57.8 58.4 58 58.4 58.2 58.4 58.5 58.4 58.7 58.3 58.8 58.3 58.8 58.3 58.9 58.2 59 58.2 59.1 58.2 59.1 58.1 59.2 58.1 59.3 58 59.3 57.9 59.3 57.9 59.3 57.9 59.3 57.9L59.3 27.2C59.2 27.3 59 27.4 58.8 27.4 58.9 27.6 58.9 27.6 58.8 27.6zM14.7 29.6C13.4 29 12.3 28.4 11.2 27.7 10.9 27.5 10.3 27.4 9.8 27.4 9.6 27.4 9.3 27.4 9.1 27.5L9.1 58.2C9.3 58.1 9.5 58.1 9.8 58.1 10.3 58.1 10.8 58.2 11.2 58.4 12.2 59.1 13.4 59.7 14.7 60.3 15.1 60.5 15.3 60.8 15.3 61.1L15.3 30.4C15.3 30.1 15.1 29.8 14.7 29.6z"/>
    <path fill="#C4EAF5" d="M50.9 32.1C50.9 32.1 50.9 32.1 50.9 32.1 50.8 32.2 50.8 32.2 50.8 32.2 50.8 32.2 50.7 32.3 50.7 32.3 50.6 32.3 50.5 32.4 50.4 32.4L47.2 33.4C47 33.5 46.7 33.5 46.5 33.5 46 33.5 45.6 33.4 45.3 33.2L45.3 63.9C45.6 64.1 46 64.2 46.5 64.2 46.7 64.2 47 64.2 47.2 64.1L50.4 63.1C50.5 63.1 50.6 63 50.7 63 50.7 63 50.7 63 50.7 63 50.8 63 50.8 62.9 50.8 62.9 50.8 62.9 50.9 62.9 50.9 62.8 50.9 62.8 50.9 62.8 50.9 62.8 50.9 62.8 50.9 62.8 50.9 62.7 50.9 62.7 51 62.6 51 62.6 51 62.6 51 62.6 51 62.6 51 62.5 51.1 62.4 51.1 62.4L51.1 31.7C51.1 31.8 51.1 31.9 51 31.9 51 32 51 32 50.9 32.1zM19.9 33.5C19.8 33.5 19.8 33.5 19.7 33.6 19.5 33.6 19.3 33.7 19.1 33.7 18.9 33.7 18.6 33.7 18.4 33.6L15.1 32.6C14.6 32.5 14.4 32.2 14.4 31.9L14.4 62.6C14.4 62.9 14.7 63.2 15.1 63.3L18.4 64.3C18.6 64.4 18.8 64.4 19.1 64.4 19.3 64.4 19.5 64.4 19.7 64.3 19.8 64.3 19.8 64.3 19.9 64.2 20 64.2 20.1 64.1 20.2 64.1 20.3 64.1 20.3 64 20.4 64L21.2 63.4 21.2 32.7 20.4 33.3C20.3 33.4 20.1 33.4 19.9 33.5z"/>
    <path fill="#A7D6E0" d="M42.9 32.2C42.7 32.2 42.5 32.2 42.3 32.3 40.8 32.6 39.2 32.8 37.6 33 37.4 33 37.3 33.1 37.1 33.1 37 33.1 37 33.1 37 33.2 36.9 33.2 36.8 33.3 36.7 33.3 36.7 33.3 36.7 33.3 36.7 33.3 36.7 33.3 36.6 33.4 36.6 33.4 36.5 33.4 36.5 33.5 36.4 33.5 36.4 33.5 36.4 33.5 36.4 33.5 36.4 33.5 36.4 33.5 36.4 33.6 36.4 33.6 36.4 33.6 36.3 33.7 36.3 33.8 36.2 33.8 36.2 33.9L36.2 64.6C36.2 64.5 36.3 64.4 36.3 64.3 36.3 64.3 36.3 64.3 36.3 64.2 36.4 64.1 36.4 64.1 36.5 64 36.5 64 36.6 63.9 36.6 63.9 36.7 63.9 36.8 63.8 36.9 63.8 36.9 63.8 37 63.8 37 63.7 37.2 63.7 37.3 63.6 37.5 63.6 39.1 63.4 40.7 63.2 42.2 62.9 42.4 62.9 42.6 62.8 42.8 62.8 43.4 62.8 43.9 62.9 44.2 63.2L45 63.8 45 33.1 44.2 32.5C44 32.3 43.5 32.2 42.9 32.2zM27.9 33C26.3 32.8 24.7 32.6 23.2 32.3 23 32.3 22.8 32.2 22.6 32.2 22.4 32.2 22.2 32.2 22 32.3 22 32.3 21.9 32.3 21.9 32.3 21.7 32.3 21.6 32.4 21.4 32.5 21.4 32.5 21.4 32.5 21.4 32.5 21.3 32.5 21.3 32.6 21.2 32.6L21.2 63.3C21.3 63.2 21.3 63.2 21.4 63.2 21.5 63.1 21.7 63.1 21.9 63 21.9 63 22 63 22 63 22.2 63 22.4 62.9 22.6 62.9 22.8 62.9 23 62.9 23.2 63 24.7 63.3 26.3 63.5 27.9 63.7 28.6 63.8 29.3 64.1 29.3 64.5L29.4 65.3 29.4 34.6 29.3 33.8C29.3 33.4 28.6 33 27.9 33z"/>
    <path fill="#C4EAF5" d="M36,34.8 C36,34.9 36,34.9 36,34.8 C35.9,34.9 35.8,35 35.7,35.1 C35.6,35.1 35.5,35.2 35.4,35.2 C35.3,35.2 35.3,35.2 35.2,35.3 C35,35.3 34.8,35.4 34.7,35.4 L31,35.4 C30.3,35.4 29.6,35.1 29.5,34.7 L29.5,65.4 C29.6,65.8 30.2,66.1 31,66.1 L34.7,66.1 C34.9,66.1 35.1,66.1 35.2,66 C35.3,66 35.3,66 35.4,65.9 C35.5,65.9 35.6,65.8 35.7,65.8 C35.7,65.8 35.7,65.8 35.7,65.8 C35.8,65.7 35.9,65.7 36,65.6 C36,65.6 36,65.6 36,65.6 C36,65.6 36,65.6 36,65.6 C36,65.6 36.1,65.5 36.1,65.5 C36.1,65.4 36.2,65.4 36.2,65.3 L36.3,64.5 L36.3,33.8 L36.2,34.6 C36.1,34.7 36.1,34.8 36,34.8 Z"/>
    <path fill="#DBF8FE" d="M63.2,15.7 L61.8,15.6 C61.1,15.6 60.4,15.2 60.3,14.8 C60,13.9 59.6,13 59,12.2 C58.7,11.8 59,11.3 59.6,11.1 L60.8,10.6 C61.4,10.4 61.6,9.9 61.2,9.5 L59.3,7.7 C59,7.4 58.5,7.3 58,7.3 C57.8,7.3 57.6,7.3 57.4,7.4 L56.1,7.7 C55.9,7.8 55.7,7.8 55.4,7.8 C54.9,7.8 54.4,7.7 54,7.5 C53,6.8 51.8,6.2 50.5,5.6 C49.9,5.3 49.7,4.8 50,4.5 L50.6,3.8 C50.9,3.4 50.6,3 50,2.8 L46.7,1.8 C46.5,1.7 46.2,1.7 46,1.7 C45.5,1.7 45.1,1.8 44.8,2 L44,2.6 C43.7,2.9 43.1,3 42.5,3 C42.3,3 42.1,3 42,3 C40.5,2.7 38.9,2.4 37.3,2.3 C36.6,2.2 35.9,1.9 35.9,1.5 L35.8,0.7 C35.7,0.3 35.1,-5.68434189e-14 34.3,-5.68434189e-14 L30.6,-5.68434189e-14 C29.9,-5.68434189e-14 29.2,0.3 29.2,0.7 L29.1,1.5 C29,1.9 28.4,2.3 27.7,2.4 C26.1,2.6 24.5,2.8 23,3.1 C22.8,3.1 22.6,3.2 22.4,3.2 C21.8,3.2 21.3,3.1 21,2.8 L20.2,2.2 C19.9,2 19.5,1.9 19,1.9 C18.8,1.9 18.5,1.9 18.3,2 L15.1,3.1 C14.5,3.3 14.2,3.8 14.5,4.1 L15.1,4.8 C15.4,5.2 15.2,5.7 14.6,5.9 C13.4,6.5 12.2,7.1 11.2,7.8 C10.9,8 10.3,8.1 9.8,8.1 C9.6,8.1 9.3,8.1 9.1,8 L7.8,7.7 C7.6,7.7 7.4,7.6 7.2,7.6 C6.7,7.6 6.2,7.7 5.9,8 L4.1,9.8 C3.7,10.2 3.9,10.6 4.5,10.9 L5.7,11.4 C6.3,11.6 6.6,12.1 6.3,12.5 C5.8,13.4 5.3,14.2 5.1,15.1 C5,15.5 4.3,15.9 3.6,15.9 L2.2,16 C1.5,16 0.9,16.4 0.9,16.8 L0.9,18.9 C0.9,19.3 1.5,19.7 2.2,19.7 L3.6,19.8 C4.3,19.8 5,20.2 5.1,20.6 C5.4,21.5 5.8,22.4 6.4,23.2 C6.7,23.6 6.4,24.1 5.8,24.3 L4.6,24.8 C4,25 3.8,25.5 4.2,25.9 L6.1,27.7 C6.4,27.9 6.8,28.1 7.4,28.1 C7.6,28.1 7.8,28.1 8,28 L9.3,27.7 C9.5,27.6 9.7,27.6 10,27.6 C10.5,27.6 11,27.7 11.4,27.9 C12.4,28.6 13.6,29.2 14.9,29.8 C15.5,30.1 15.7,30.6 15.4,30.9 L14.8,31.6 C14.5,32 14.8,32.4 15.4,32.6 L18.7,33.6 C18.9,33.7 19.1,33.7 19.4,33.7 C19.9,33.7 20.3,33.6 20.6,33.3 L21.4,32.7 C21.7,32.4 22.3,32.3 22.8,32.3 C23,32.3 23.2,32.3 23.4,32.4 C24.9,32.7 26.5,32.9 28.1,33.1 C28.8,33.2 29.5,33.5 29.5,33.9 L29.6,34.7 C29.7,35.1 30.3,35.4 31.1,35.4 L34.8,35.4 C35.5,35.4 36.2,35.1 36.3,34.7 L36.4,33.9 C36.5,33.5 37.1,33.1 37.8,33.1 C39.4,32.9 41,32.7 42.5,32.4 C42.7,32.4 42.9,32.3 43.1,32.3 C43.7,32.3 44.2,32.4 44.5,32.7 L45.3,33.3 C45.6,33.5 46,33.6 46.5,33.6 C46.7,33.6 47,33.6 47.2,33.5 L50.4,32.5 C51,32.3 51.3,31.8 51,31.5 L50.4,30.8 C50.1,30.4 50.3,29.9 50.9,29.7 C52.1,29.1 53.3,28.5 54.3,27.8 C54.6,27.6 55.2,27.5 55.7,27.5 C55.9,27.5 56.1,27.5 56.4,27.6 L57.7,27.9 C57.9,27.9 58.1,28 58.3,28 C58.8,28 59.3,27.9 59.6,27.6 L61.4,25.8 C61.8,25.4 61.6,25 61,24.7 L59.8,24.2 C59.2,24 58.9,23.5 59.2,23.1 C59.8,22.3 60.2,21.4 60.4,20.5 C60.5,20.1 61.2,19.7 61.9,19.7 L63.3,19.6 C64,19.6 64.6,19.2 64.6,18.8 L64.6,16.7 C64.5,16.1 63.9,15.8 63.2,15.7 Z M51.1,23.5 C47.2,27.3 40,29.4 32.6,29.4 C29,29.4 25.4,28.9 22.1,27.9 C11.9,24.7 8.4,17.5 14.2,11.8 C18.1,8 25.3,5.9 32.6,5.9 C36.2,5.9 39.8,6.4 43.1,7.5 C53.3,10.6 56.9,17.8 51.1,23.5 Z"/>
  </g>
</svg>
