<svg xmlns="http://www.w3.org/2000/svg" width="29" height="28" viewBox="0 0 29 28">
  <defs>
    <radialGradient id="gear-a" cx="49.996%" cy="19.264%" r="70.862%" fx="49.996%" fy="19.264%" gradientTransform="matrix(.5757 0 0 1 .212 0)">
      <stop offset="9%" stop-color="#48486A"/>
      <stop offset="12%" stop-color="#505070"/>
      <stop offset="35%" stop-color="#8D8DA3"/>
      <stop offset="56%" stop-color="#BEBECA"/>
      <stop offset="75%" stop-color="#E2E2E7"/>
      <stop offset="90%" stop-color="#F7F7F9"/>
      <stop offset="100%" stop-color="#FFF"/>
    </radialGradient>
  </defs>
  <g fill="none">
    <path fill="url(#gear-a)" d="M24.0472755,25.5035161 C29.3175748,22.4787805 29.3175748,17.5278932 24.0472755,14.4983181 C18.7769762,11.4687429 10.1722083,11.4735824 4.93094641,14.4983181 C-0.310315469,17.5230537 -0.310315469,22.4787805 4.93094641,25.5035161 C10.1722083,28.5282517 18.7769762,28.5282517 24.0472755,25.5035161 Z" opacity=".44" style="mix-blend-mode:multiply"/>
    <path fill="#FAB802" d="M28.47,8.83 C28.47,8.49 27.98,8.21 27.39,8.21 L25.08,8.21 C24.7,8.21 24.08,8.61 23.97,8.49 C23.86,8.37 23.87,8.06 24.14,7.9 L25.77,7 C26.19,6.76 23.51,6.87 23.09,6.63 L23.09,4.63 C22.6130946,4.38440649 22.0469054,4.38440649 21.57,4.63 L19.92,5.57 C19.613289,5.73413752 19.2550559,5.77354315 18.92,5.68 L18.21,5.52 C17.87,5.44 17.65,5.25 17.65,5.04 L17.65,3.63 C17.65,3.29 17.17,3.01 16.57,3.01 L12.85,3.01 C12.25,3.01 11.77,3.29 11.77,3.63 L11.77,5 C11.77,5.22 11.52,5.4 11.17,5.48 L10.5,5.64 C10.1662249,5.72576317 9.81309805,5.69398175 9.5,5.55 L7.87,4.61 C7.38807512,4.37068171 6.82192488,4.37068171 6.34,4.61 L6.15,6.83 C5.73,7.07 3.27,6.78 3.7,7.03 L5.34,7.97 C5.6,8.12 5.68,8.34 5.54,8.53 C5.4,8.72 4.79,8.27 4.42,8.27 L2.06,8.27 C1.47,8.27 0.98,8.55 0.99,8.9 L0.99,12 C0.99,12.35 1.48,12.63 2.08,12.62 L3.43,12.62 L3.43,15.23 C3.41998708,15.2761296 3.41998708,15.3238704 3.43,15.37 C3.46863495,15.5324859 3.57900887,15.6686137 3.73,15.74 L6.4,17.27 C6.6901869,17.4164266 7.01771066,17.4721753 7.34,17.43 C7.53492569,17.4116007 7.72477667,17.3573575 7.9,17.27 L9.54,16.27 C9.84926785,16.1143001 10.2042825,16.0752485 10.54,16.16 C10.77,16.22 11.02,16.28 11.24,16.32 C11.46,16.36 11.81,16.59 11.81,16.8 L11.81,18.14 C11.81,18.49 12.3,18.76 12.89,18.76 L16.65,18.76 C17.25,18.76 17.73,18.48 17.73,18.14 L17.73,16.81 C17.73,16.59 17.97,16.4 18.33,16.32 C18.69,16.24 18.76,16.23 18.97,16.17 C19.3043786,16.0803188 19.6600014,16.1158811 19.97,16.27 L21.6,17.2 C21.7721638,17.2949991 21.963635,17.3497051 22.16,17.36 C22.4832605,17.3978638 22.8104772,17.3386863 23.1,17.19 L25.75,15.66 C25.899994,15.5897655 26.0128067,15.4587572 26.06,15.3 L26.06,15.21 L26.06,12.54 L27.39,12.54 C27.99,12.54 28.47,12.26 28.47,11.92 L28.47,8.83 Z M20,11.47 C19.37,13.38 15.93,14.47 12.84,13.77 C10.49,13.25 9.06,11.77 9.52,10.36 C10.15,8.45 13.59,7.36 16.68,8.06 C19,8.58 20.43,10 20,11.47 Z"/>
    <path fill="#FAB802" d="M26.1,5.24 L26.1,3.54 L23.65,3.54 L23.11,3.23 C22.631922,2.98929347 22.068078,2.98929347 21.59,3.23 L21.05,3.54 L17.69,3.54 L17.69,2.3 C17.69,1.96 17.21,1.68 16.61,1.68 L12.85,1.68 C12.25,1.68 11.77,1.96 11.77,2.3 L11.77,3.54 L8.36,3.54 L7.84,3.24 C7.35959436,2.99429185 6.79040564,2.99429185 6.31,3.24 L5.8,3.53 L3.35,3.53 L3.35,5.2 C3.36026125,5.40179568 3.48436905,5.58020064 3.67,5.66 L5.31,6.6 L24.14,6.6 L25.77,5.66 C25.9291199,5.581155 26.043351,5.43375998 26.08,5.26 L26.1,5.24 Z"/>
    <path fill="#F6E000" d="M24.45,9.63 L27.39,9.63 C27.99,9.63 28.47,9.35 28.47,9 L28.47,6.84 C28.47,6.5 27.98,6.22 27.39,6.22 L25.08,6.22 C24.760061,6.24487113 24.4476225,6.11468841 24.24,5.87 C24.1564667,5.74528341 24.0663386,5.6251126 23.97,5.51 C23.81,5.31 23.87,5.07 24.14,4.92 L25.77,4 C25.9635745,3.94097558 26.0958359,3.76237333 26.0958359,3.56 C26.0958359,3.35762667 25.9635745,3.17902442 25.77,3.12 L23.11,1.59 C22.631922,1.34929347 22.068078,1.34929347 21.59,1.59 L19.94,2.59 C19.6315321,2.74838101 19.2755194,2.78754241 18.94,2.7 L18.23,2.53 C17.89,2.45 17.67,2.27 17.67,2.05 L17.67,0.64 C17.67,0.3 17.19,0.02 16.59,0.02 L12.85,0.02 C12.25,0.02 11.77,0.3 11.77,0.64 L11.77,2 C11.77,2.22 11.52,2.41 11.17,2.49 L10.5,2.65 C10.1654741,2.73784085 9.81050742,2.70234419 9.5,2.55 L7.87,1.62 C7.39081981,1.36925627 6.81918019,1.36925627 6.34,1.62 L3.69,3.15 C3.49642551,3.20902442 3.36416408,3.38762667 3.36416408,3.59 C3.36416408,3.79237333 3.49642551,3.97097558 3.69,4.03 L5.33,4.97 C5.59,5.12 5.67,5.34 5.53,5.54 L5.24,5.94 C5.03055913,6.17431214 4.72315103,6.29653463 4.41,6.27 L2.06,6.27 C1.47,6.27 0.98,6.55 0.99,6.9 L0.99,9 C0.99,9.34 1.48,9.62 2.08,9.62 L4.38,9.62 C4.701621,9.5893719 5.01822487,9.71601344 5.23,9.96 C5.31,10.09 5.4,10.21 5.49,10.33 C5.58,10.45 5.6,10.76 5.33,10.92 L3.7,11.86 C3.50642551,11.9190244 3.37416408,12.0976267 3.37416408,12.3 C3.37416408,12.5023733 3.50642551,12.6809756 3.7,12.74 L6.37,14.26 C6.8469054,14.5055935 7.4130946,14.5055935 7.89,14.26 L9.53,13.26 C9.83891596,13.1021619 10.1959461,13.0664589 10.53,13.16 L11.23,13.32 C11.57,13.4 11.8,13.58 11.8,13.8 L11.8,15.14 C11.8,15.48 12.29,15.76 12.88,15.76 L16.64,15.76 C17.24,15.76 17.72,15.48 17.72,15.14 L17.72,13.81 C17.72,13.59 17.96,13.41 18.32,13.33 L18.96,13.17 C19.29473,13.0848155 19.6487666,13.1202191 19.96,13.27 L21.59,14.21 C22.0719249,14.4493183 22.6380751,14.4493183 23.12,14.21 L25.77,12.68 C26.2,12.43 26.19,12.04 25.77,11.8 L24.13,10.8 C23.87,10.66 23.79,10.43 23.94,10.24 C24.09,10.05 24.43,9.65 24.45,9.63 Z M9.45,7.38 C10.08,5.47 13.52,4.38 16.61,5.07 C18.96,5.59 20.39,7.07 19.93,8.48 C19.3,10.39 15.86,11.48 12.77,10.79 C10.46,10.26 9,8.8 9.49,7.38 L9.45,7.38 Z"/>
  </g>
</svg>
