<?xml version="1.0" encoding="utf-8"?>
<!-- Generator: Adobe Illustrator 21.0.0, SVG Export Plug-In . SVG Version: 6.00 Build 0)  -->
<svg version="1.1" id="Capa_1" xmlns="http://www.w3.org/2000/svg" xmlns:xlink="http://www.w3.org/1999/xlink" x="0px" y="0px"
	 width="111.2px" height="120px" viewBox="0 0 111.2 120" enable-background="new 0 0 111.2 120" xml:space="preserve">
<g>
	<path fill="#2DA1E3" d="M16.1,0C25,0,32.2,7.2,32.2,16.1S25,32.2,16.1,32.2C7.2,32.2,0,25,0,16.1S7.2,0,16.1,0"/>
	<polygon fill="#13399D" points="2.9,117.1 26.3,117.1 26.3,38 2.9,38 	"/>
	<path fill="#13399D" d="M70.9,67H55c1.5-6.3,6.6-12,15.8-12s14.3,5.7,15.8,12H70.9z M111.2,77.8l0-0.4c-0.1-23.4-15.6-42.2-41-42.2
		c-25.4,0-40.9,18.9-41,42.2l0,0.4c0,25.6,19.7,42.2,44.4,42.2c12.8,0,25.8-5.8,33.7-15.9L90.6,91.7c-4.4,5.2-10,9.4-18.1,9.4
		C63,101.1,55.9,95,54,85.6h56.6C111,83.1,111.2,80.5,111.2,77.8z"/>
</g>
</svg>
