<?xml version="1.0" encoding="utf-8"?>
<!-- Generator: Adobe Illustrator 21.0.0, SVG Export Plug-In . SVG Version: 6.00 Build 0)  -->
<svg version="1.1" id="Capa_1" xmlns="http://www.w3.org/2000/svg" xmlns:xlink="http://www.w3.org/1999/xlink" x="0px" y="0px"
	 width="47px" height="84px" viewBox="0 0 47 84" enable-background="new 0 0 47 84" xml:space="preserve">
<ellipse id="menu-shadow" opacity="0.298" fill="#90DFFF" enable-background="new    " cx="23.5" cy="77" rx="23.5" ry="6"/>
<polyline fill="#5490C0" points="28.3,12.5 28.4,48.3 32,50.5 31.9,14.6 28.3,12.5 "/>
<polyline fill="#5490C0" points="31.9,14.6 32,50.5 45.4,42.8 46.3,42.3 46.2,6.4 31.9,14.6 "/>
<polyline fill="#CFE6ED" points="0.6,8.8 0.6,44.7 3.5,46.4 3.4,10.5 0.6,8.8 "/>
<polyline fill="#5490C0" points="3.4,10.5 3.5,46.4 16.9,38.8 17.9,38.2 16,3.4 3.4,10.5 "/>
<polyline fill="#2E5595" points="16.2,8.2 6.2,13.9 6.3,40 17.7,33.5 16.2,8.2 "/>
<polygon fill="#87BDD9" points="46.2,6.4 44.1,5.2 43.2,4.8 31.8,11.2 15.3,1.8 14.1,1.1 0.6,8.8 1.3,9.3 3.4,10.5 14.2,4.4 
	28.9,12.8 28.9,12.9 29.3,13 31.9,14.6 34.1,13.4 34.7,13 34.7,12.9 "/>
<path fill="#4B853F" d="M16.2,8.2l-5.6,3.2c-1.2,4.1-0.4,9.2,1.3,6.6c1.7-2.6,2.5-3.4,2.5-3.4s0.9-0.1,2.2-0.1L16.2,8.2"/>
<polyline fill="#5490C0" points="35.5,12.5 35.4,48.4 31.8,50.5 31.9,14.6 35.5,12.5 "/>
<polyline fill="#CFE6ED" points="14.5,4.3 14.4,40.1 31.8,50.5 31.9,14.6 14.5,4.3 "/>
<polyline fill="#5490C0" points="14.5,9.1 14.4,35.5 31.8,45.8 31.9,19.4 14.5,9.1 "/>
<polyline fill="#2E5595" points="43.3,13 31.8,19.4 31.9,45.8 43.3,39.3 43.3,13 "/>
<path fill="#4B853F" d="M31.8,19.4l0.1,16.5l0.1-0.1c2.6-2.1,0.2-8.7,2.7-9c2.5-0.3,8-0.7,8.6-5.1v-8.8L31.8,19.4"/>
<path fill="#89C04E" d="M14.5,14.6c0.8-0.1,7.8-0.8,7.1,4.1c-0.8,5.2,1,5.8,3.1,10.2c2.1,4.3,4.5,8.9,7.1,7.1l0.1-16.6L14.5,9.1
	L14.5,14.6"/>
<path fill="#4B853F" d="M14.4,21.1c-3.1,2.5-5.2,9,0.1,8.4L14.4,21.1"/>
<path fill="#89C04E" d="M20.5,28.4c-1.4-0.2-1.9-4.9-2-7.4c-0.1-2.4-4,0-4,0l0.1,8.4c1.8-1.5,2.4,0.4,4.9,1.6
	C22,32.2,21.9,28.7,20.5,28.4"/>
<path fill="#4B853F" d="M10.6,31.8c-1.2-1.8-2-4-4.4-1.8v10l8.2-4.5v-3.3C14.4,32.3,11.9,33.5,10.6,31.8"/>
<path fill="#89C04E" d="M31.8,39.3c0,0-3.5,1.6-4,1.1s-2.9-4.5-2.9-4.5s-2.3-0.1-5.4,0s-2.7-4.2-4.9-3.7v3.3l17.5,10.3L31.8,39.3"/>
<path fill="#4B853F" d="M38.5,38.2c-2.6-1-5.3,0-6.7,1.5l0.1,6.1l11.4-6.5V37C43.3,37.1,41.1,39.2,38.5,38.2"/>
<path fill="#FFFFFE" d="M20.8,25c0-1.3,1-2.4,2.3-2.5c1.3,0,2.4,1,2.5,2.3c0,1.3-1,2.4-2.3,2.5C22,27.3,20.9,26.3,20.8,25z
	 M18.2,28.2L18.2,28.2l5.4,7.4l4.9-7.6c0.7-1.1,1.1-2.3,1.1-3.8c-0.1-3.5-3.1-6.3-6.6-6.1c-3.5,0.1-6.3,3-6.2,6.5
	C16.9,26.1,17.4,27.5,18.2,28.2z"/>
</svg>
