<svg xmlns="http://www.w3.org/2000/svg" width="32" height="32" viewBox="0 0 32 32">
  <g fill="#CF4D2F" fill-rule="evenodd">
    <path d="M3.90243902,20.2926829 C3.90243902,17.0597966 6.52023957,14.4390244 9.75808031,14.4390244 L21.4614319,14.4390244 C24.6954133,14.4390244 27.3170732,17.0590858 27.3170732,20.2926829 C27.3170732,23.5255692 24.6992726,26.1463415 21.4614319,26.1463415 L9.75808031,26.1463415 C6.52409893,26.1463415 3.90243902,23.5262801 3.90243902,20.2926829 Z M19.9693943,20.2926829 L19.4175061,20.8445712 L18.8656179,21.3964594 L19.9693943,22.5002358 L20.5212825,21.9483476 L21.0731707,21.3964594 L21.625059,21.9483476 L22.1769472,22.5002358 L23.2807236,21.3964594 L22.7288354,20.8445712 L22.1769472,20.2926829 L22.7288354,19.7407947 L23.2807236,19.1889065 L22.1769472,18.0851301 L21.625059,18.6370183 L21.0731707,19.1889065 L20.5212825,18.6370183 L19.9693943,18.0851301 L18.8656179,19.1889065 L19.4175061,19.7407947 L19.9693943,20.2926829 Z M9.04256503,20.2926829 L8.4906768,20.8445712 L7.9387886,21.3964594 L9.04256503,22.5002358 L9.59445323,21.9483476 L10.1463415,21.3964594 L10.6982297,21.9483476 L11.2501179,22.5002358 L12.3538943,21.3964594 L11.8020061,20.8445712 L11.2501179,20.2926829 L11.8020061,19.7407947 L12.3538943,19.1889065 L11.2501179,18.0851301 L10.6982297,18.6370183 L10.1463415,19.1889065 L9.59445323,18.6370183 L9.04256503,18.0851301 L7.9387886,19.1889065 L8.4906768,19.7407947 L9.04256503,20.2926829 Z"/>
    <path fill-rule="nonzero" d="M15.6097561,4.68292683 C23.9741067,4.68292683 27.8564935,8.04439961 29.6585375,11.1649139 L29.6585366,1.53824297 L29.6585366,0.780487805 L31.2195122,0.780487805 L31.2195122,1.53824297 L31.2195122,19.5349278 L31.2195122,19.9138053 L31.2195122,24.195122 C31.2195122,24.195122 31.2195122,32 15.6097561,32 C0,32 0,24.195122 0,24.195122 L0,19.9138053 L0,19.5349278 L0,1.53824297 L0,0.780487805 L1.56097561,0.780487805 L1.56097561,1.53824297 L1.56097561,11.1649123 C3.36301869,8.04439961 7.24540554,4.68292683 15.6097561,4.68292683 Z M1.56097561,16.3902439 L1.56097561,24.195122 C1.56097561,24.1843689 1.56369674,24.2251861 1.57577483,24.3097325 C1.60099048,24.486242 1.64855387,24.6923502 1.72477393,24.9210103 C1.95511134,25.6120225 2.37792741,26.316716 3.05499594,26.9937845 C5.16891707,29.1077056 9.16287329,30.4390244 15.6097561,30.4390244 C22.0566389,30.4390244 26.0505951,29.1077056 28.1645163,26.9937845 C28.8415848,26.316716 29.2644009,25.6120225 29.4947383,24.9210103 C29.5709583,24.6923502 29.6185217,24.486242 29.6437374,24.3097325 C29.6558155,24.2251861 29.6585366,24.1843689 29.6585366,24.195122 L29.6585366,16.3902439 C29.6585366,16.346711 29.6531008,16.2244056 29.6350802,16.0351898 C29.6028848,15.6971371 29.5440437,15.3146705 29.4518056,14.8995988 C29.1864783,13.705626 28.7088048,12.5114424 27.9694825,11.4024588 C25.8294355,8.19238841 21.9324636,6.24390244 15.6097561,6.24390244 C9.28704862,6.24390244 5.39007668,8.19238841 3.25002974,11.4024588 C2.51070736,12.5114424 2.03303391,13.705626 1.76770661,14.8995988 C1.67546849,15.3146705 1.61662743,15.6971371 1.58443196,16.0351898 C1.56726178,16.2154766 1.56097561,16.3902439 1.56097561,16.3902439 Z M1.56097561,0.780487805 C1.56097561,0.349436293 1.21153932,0 0.780487805,0 C0.349436293,0 0,0.349436293 0,0.780487805 L1.56097561,0.780487805 Z M31.2195122,0.780487805 C31.2195122,0.349436293 30.8700759,0 30.4390244,0 C30.0079729,0 29.6585366,0.349436293 29.6585366,0.780487805 L31.2195122,0.780487805 Z"/>
  </g>
</svg>
