<svg xmlns="http://www.w3.org/2000/svg" width="32" height="32" viewBox="0 0 32 32">
  <g fill="#0BB970">
    <path d="M3.9047619,20.2926829 C3.9047619,17.0597966 6.52412067,14.4390244 9.76388869,14.4390244 L21.4742065,14.4390244 C24.7101129,14.4390244 27.3333333,17.0590858 27.3333333,20.2926829 C27.3333333,23.5255692 24.7139746,26.1463415 21.4742065,26.1463415 L9.76388869,26.1463415 C6.52798232,26.1463415 3.9047619,23.5262801 3.9047619,20.2926829 Z M9.13058555,20.7733095 C9.16304334,20.7318055 9.25633302,20.638153 9.39509783,20.5407264 C9.6109123,20.3892033 9.84674227,20.2992489 10.0984526,20.2923932 L10.0560741,20.2923979 C10.3111599,20.2992895 10.5470229,20.3890739 10.7612237,20.5399893 C10.898233,20.6365194 10.9895771,20.7290207 11.0206412,20.769282 L11.4975239,21.3873552 L12.7344063,20.4341572 L12.2575236,19.8160839 C12.137901,19.6610446 11.9399592,19.4605952 11.6611708,19.2641746 C11.2114095,18.9472947 10.6876401,18.7479148 10.0982813,18.7319924 L10.0559028,18.731997 C9.46997406,18.7479554 8.94771337,18.9471653 8.49724668,19.2634375 C8.21876152,19.4589616 8.02023519,19.6582599 7.89996024,19.8120564 L7.41904762,20.427003 L8.64967293,21.3882561 L9.13058555,20.7733095 Z M20.0639189,20.7733095 C20.0963767,20.7318055 20.1896664,20.638153 20.3284312,20.5407264 C20.5442456,20.3892033 20.7800756,20.2992489 21.0317859,20.2923932 L20.9894074,20.2923979 C21.2444932,20.2992895 21.4803562,20.3890739 21.694557,20.5399893 C21.8315664,20.6365194 21.9229105,20.7290207 21.9539746,20.769282 L22.4308573,21.3873552 L23.6677397,20.4341572 L23.1908569,19.8160839 C23.0712344,19.6610446 22.8732925,19.4605952 22.5945042,19.2641746 C22.1447428,18.9472947 21.6209734,18.7479148 21.0316146,18.7319924 L20.9892361,18.731997 C20.4033074,18.7479554 19.8810467,18.9471653 19.43058,19.2634375 C19.1520949,19.4589616 18.9535685,19.6582599 18.8332936,19.8120564 L18.352381,20.427003 L19.5830063,21.3882561 L20.0639189,20.7733095 Z"/>
    <path d="M15.6190476,4.68292683 C23.988377,4.68292683 27.8730747,8.04439961 29.6761914,11.1649139 L29.6761905,1.53824297 L29.6761905,0.780487805 L31.2380952,0.780487805 L31.2380952,1.53824297 L31.2380952,19.5349278 L31.2380952,19.9138053 L31.2380952,24.195122 C31.2380952,24.195122 31.2380952,32 15.6190476,32 C0,32 0,24.195122 0,24.195122 L0,19.9138053 L0,19.5349278 L0,1.53824297 L0,0.780487805 L1.56190476,0.780487805 L1.56190476,1.53824297 L1.56190476,11.1649123 C3.36502049,8.04439961 7.24971828,4.68292683 15.6190476,4.68292683 Z M1.56190476,16.3902439 L1.56190476,24.195122 C1.56190476,24.1843689 1.56462751,24.2251861 1.57671279,24.3097325 C1.60194345,24.486242 1.64953516,24.6923502 1.72580058,24.9210103 C1.95627509,25.6120225 2.37934285,26.316716 3.05681439,26.9937845 C5.17199381,29.1077056 9.16832738,30.4390244 15.6190476,30.4390244 C22.0697679,30.4390244 26.0661014,29.1077056 28.1812808,26.9937845 C28.8587524,26.316716 29.2818201,25.6120225 29.5122947,24.9210103 C29.5885601,24.6923502 29.6361518,24.486242 29.6613824,24.3097325 C29.6734677,24.2251861 29.6761905,24.1843689 29.6761905,24.195122 L29.6761905,16.3902439 C29.6761905,16.346711 29.6707515,16.2244056 29.6527202,16.0351898 C29.6205055,15.6971371 29.5616294,15.3146705 29.4693364,14.8995988 C29.2038512,13.705626 28.7258934,12.5114424 27.986131,11.4024588 C25.8448102,8.19238841 21.9455186,6.24390244 15.6190476,6.24390244 C9.29257663,6.24390244 5.39328506,8.19238841 3.25196428,11.4024588 C2.51220182,12.5114424 2.03424405,13.705626 1.76875882,14.8995988 C1.67646579,15.3146705 1.61758971,15.6971371 1.58537508,16.0351898 C1.56819467,16.2154766 1.56190476,16.3902439 1.56190476,16.3902439 Z M1.56190476,0.780487805 C1.56190476,0.349436293 1.21226047,0 0.780952381,0 C0.34964429,0 0,0.349436293 0,0.780487805 L1.56190476,0.780487805 Z M31.2380952,0.780487805 C31.2380952,0.349436293 30.8884509,0 30.4571429,0 C30.0258348,0 29.6761905,0.349436293 29.6761905,0.780487805 L31.2380952,0.780487805 Z"/>
  </g>
</svg>
