<svg xmlns="http://www.w3.org/2000/svg">

    <symbol id="mamutlove" viewBox="0 0 169.2 149.2">
        <title>Logo de Mamutlove</title>
        <path fill="currentColor" d="M66.9,105c-1.4-2.4-2.6-4.7-4.1-6.9c-4-6-9.4-9.8-16.4-11.6c-4.1-1-8.3-1.5-12.6-1.5
        c-7.3,0.1-14.4,1.4-20.7,5.3C8.6,93,5.2,97,2.2,101.3c-0.6,0.8-1.2,1.7-1.8,2.6c0,0.1-0.1,0.1-0.3,0.1c0-0.4-0.1-0.7-0.1-1
        C0,71.8,0.1,40.8,0,9.7C0,4.4,4.2,0,9.7,0c49.9,0,99.8,0,149.8,0c4.7,0,8.2,2.7,9.5,7.1c0.2,0.6,0.2,1.3,0.2,1.9
        c0,43.7,0,87.4,0,131.2c0,3.9-3,7.7-6.8,8.6c-1.3,0.3-2.6,0.5-3.9,0.5c-5.3,0.1-10.6,0-15.8,0c-1,0-1.3-0.3-1.3-1.3
        c0-6.3,0.2-12.6,0-18.8c-0.2-5-0.5-10.1-1.2-15c-1-6.4-3.9-12.1-8.3-17c-5-5.5-11.1-9.2-18.3-10.9c-5.7-1.4-11.4-1.5-17.1-0.7
        c-5.1,0.7-9.9,2.1-14.4,4.5c-6.1,3.3-10.7,8.2-14.4,14c-0.2,0.3-0.3,0.5-0.5,0.8C67,104.9,67,104.9,66.9,105z M153,46
        c0-3,0-6.1,0-9.1c0-1.9,0-3.8,0-5.8c0-1-0.7-1.7-1.6-1.8c-1-0.1-1.5,0.6-1.7,1.5c-0.1,0.5-0.1,1-0.1,1.4c0,4.6,0,9.2,0,13.8
        c0,4.6,0,9.2,0,13.8c0,1.7,0.6,2.6,1.7,2.6c1,0,1.7-1.1,1.7-2.6C153,55.3,153,50.7,153,46z" />
        <path fill="currentColor" d="M108.7,149.1c-12.7,0-25.2,0-37.7,0c0-0.3-0.1-0.5-0.1-0.8c0-5.6-0.1-11.1,0.2-16.7
        c0.3-5.3,1.9-10.4,5.7-14.4c2.6-2.8,5.9-4.3,9.6-5c3.7-0.7,7.4-0.6,11.1,0.4c5,1.4,8.1,4.7,9.8,9.5c1,2.9,1.3,5.8,1.4,8.8
        c0,5.5,0,11,0,16.5C108.7,148.1,108.7,148.6,108.7,149.1z" />
        <path fill="currentColor" d="M39.1,149.2c-0.6,0-1,0-1.4,0c-9.4,0-18.9,0.1-28.3,0c-3.4,0-6.1-1.6-7.9-4.6c-0.2-0.4-0.4-0.9-0.4-1.3
        c0-4-0.1-8,0.1-12c0.2-3.5,0.7-6.9,2.2-10.1c2-4.2,5.5-6.6,9.8-7.9c3.7-1.1,7.5-1.2,11.3-0.9c6.8,0.7,12,4.3,13.4,11.7
        c0.8,4,1,8.2,1.2,12.4c0.2,3.7,0,7.5,0,11.3C39.1,148.2,39.1,148.6,39.1,149.2z" />
    </symbol>

    <symbol id="moon" viewBox="0 0 399.1 399.1">
        <g fill="currentColor">
            <path d="M355.6,82.2c-21-32.1-50.6-57.5-85.4-73.5c-7.2-3.3-15.7-1.3-20.6,4.9c-4.9,6.2-5,14.9-0.2,21.2
                    c21.2,27.7,32.4,60.9,32.4,95.9c0,68.4-43.6,128.7-108.6,150.2c-6.5,1.7-11.5,3.1-15.3,4.3c-1.7,0.3-3.7,0.6-5.9,1.1
                    c-9.3,1.7-18.8,2.5-28.4,2.5c-35,0-68.2-11.2-95.9-32.4c-6.3-4.8-15-4.7-21.2,0.2c-6.2,4.9-8.2,13.4-4.9,20.6
                    c15.9,34.8,41.3,64.4,73.5,85.4c33,21.6,71.3,33,110.9,33c111.8,0,202.7-90.9,202.7-202.7C388.6,153.6,377.2,115.2,355.6,82.2z
                    M186,382.2c-36.9,0-72.7-10.7-103.4-30.8c-30-19.6-53.7-47.2-68.5-79.7c-0.7-1.5-0.3-3.2,1-4.3c1.3-1,3.1-1,4.4,0
                    c30.1,23,66.2,35.2,104.2,35.2c10.3,0,20.7-0.9,30.8-2.8c6.6-1.7,10.8-2.7,13.4-3.5c2.8-0.6,6-1.4,9.6-2.4
                    c34-11.3,63.3-32.6,84.6-61.6c21.8-29.6,33.3-64.8,33.3-101.6c0-38-12.2-74-35.2-104.2c-1-1.3-1-3.1,0-4.4c1-1.3,2.8-1.7,4.3-1
                    c32.5,14.9,60.1,38.6,79.7,68.5c20.1,30.8,30.8,66.5,30.8,103.4C375,297.4,290.2,382.2,186,382.2z"/>
            <path d="M209.9,123.1c0-3.8-3.1-6.8-6.8-6.8c-16.1,0-29.2-13.1-29.2-29.2c0-3.8-3.1-6.8-6.8-6.8s-6.8,3.1-6.8,6.8
                c0,16.1-13.1,29.2-29.2,29.2c-3.8,0-6.8,3.1-6.8,6.8s3.1,6.8,6.8,6.8c16.1,0,29.2,13.1,29.2,29.2c0,3.8,3.1,6.8,6.8,6.8
                s6.8-3.1,6.8-6.8c0-16.1,13.1-29.2,29.2-29.2C206.9,129.9,209.9,126.8,209.9,123.1z M179.9,123.1c-5.2,3.3-9.6,7.7-12.9,12.9
                c-3.3-5.2-7.7-9.6-12.9-12.9c5.2-3.3,9.6-7.7,12.9-12.9C170.3,115.3,174.7,119.7,179.9,123.1z"/>
            <circle cx="106.5" cy="228.3" r="8.6"/>
            <circle cx="359.5" cy="355.9" r="8.6"/>
            <circle cx="112.1" cy="72.7" r="8.6"/>
            <path d="M111.4,196.8c0-0.1,0-0.3,0-0.4v-14.6l5.3,5.3c1,1,2.3,1.5,3.5,1.5s2.6-0.5,3.5-1.5c2-2,2-5.1,0-7.1L110,166.2c0,0,0,0,0,0
                c-0.2-0.2-0.5-0.4-0.7-0.6c-0.1-0.1-0.3-0.1-0.4-0.2c-0.2-0.1-0.3-0.2-0.5-0.2c-0.2-0.1-0.3-0.1-0.5-0.2c-0.1,0-0.3-0.1-0.4-0.1
                c-0.3-0.1-0.6-0.1-0.9-0.1c0,0,0,0,0,0s0,0,0,0c-0.3,0-0.6,0-0.9,0.1c-0.2,0-0.3,0.1-0.4,0.1c-0.2,0-0.3,0.1-0.5,0.2
                c-0.2,0.1-0.3,0.2-0.5,0.3c-0.1,0.1-0.3,0.1-0.4,0.2c-0.3,0.2-0.5,0.4-0.7,0.6c0,0,0,0,0,0l-13.9,13.9c-2,2-2,5.1,0,7.1
                c1,1,2.3,1.5,3.5,1.5s2.6-0.5,3.5-1.5l5.3-5.3v14.6c0,0.1,0,0.3,0,0.4c-15.2,2.4-26.9,15.6-26.9,31.5c0,17.6,14.3,31.9,31.9,31.9
                c17.6,0,31.9-14.3,31.9-31.9C138.4,212.4,126.7,199.2,111.4,196.8z M106.5,249.9c-11.9,0-21.6-9.7-21.6-21.5
                c0-11.9,9.7-21.6,21.6-21.6s21.5,9.7,21.6,21.6C128,240.2,118.4,249.9,106.5,249.9z"/>
        </g>
    </symbol>
    
    <symbol id="sun" viewBox="0 0 399.1 399.1">
        <g fill="currentColor">
	<path d="M199.6,44.2c-85.8,0-155.3,69.5-155.3,155.3c0,41.2,16.4,80.7,45.5,109.9c29.1,29.2,68.6,45.5,109.8,45.5
		c85.8,0,155.3-69.5,155.3-155.3C354.9,113.8,285.3,44.3,199.6,44.2z M295.8,296c-53.2,53.2-139.4,53.2-192.5,0
		c-25.6-25.6-39.9-60.3-39.9-96.4c-0.1-36.1,14.3-70.8,39.9-96.3v0.2c53.2-53.2,139.4-53.2,192.5,0C349,156.6,349,242.8,295.8,296z"
		/>
	<path d="M199.5,63.6c-4.4,0-8-3.6-8-8V8c0-4.4,3.6-8,8-8s8,3.6,8,8v47.6C207.5,60,204,63.6,199.5,63.6z"/>
	<path d="M199.5,399.1c-4.4,0-8-3.6-8-8v-47.6c0-4.4,3.6-8,8-8s8,3.6,8,8v47.6C207.5,395.5,204,399.1,199.5,399.1z"/>
	<path d="M335.5,199.5c0-4.4,3.6-8,8-8h47.6c4.4,0,8,3.6,8,8s-3.6,8-8,8h-47.6C339.1,207.5,335.5,204,335.5,199.5z"/>
	<path d="M0,199.5c0-4.4,3.6-8,8-8h47.6c4.4,0,8,3.6,8,8s-3.6,8-8,8H8C3.6,207.5,0,204,0,199.5z"/>
	<path d="M295.7,295.7c3.1-3.1,8.2-3.1,11.3,0l33.6,33.6c3.1,3.1,3.1,8.2,0,11.3c-3.1,3.1-8.2,3.1-11.3,0L295.7,307
		C292.6,303.9,292.6,298.8,295.7,295.7z"/>
	<path d="M58.4,58.4c3.1-3.1,8.2-3.1,11.3,0l33.6,33.6c3.1,3.1,3.1,8.2,0,11.3s-8.2,3.1-11.3,0L58.4,69.8
		C55.3,66.6,55.3,61.6,58.4,58.4z"/>
	<path d="M295.7,103.4c-3.1-3.1-3.1-8.2,0-11.3l33.6-33.6c3.1-3.1,8.2-3.1,11.3,0c3.1,3.1,3.1,8.2,0,11.3L307,103.4
		C303.9,106.5,298.8,106.5,295.7,103.4z"/>
	<path d="M58.4,340.6c-3.1-3.1-3.1-8.2,0-11.3l33.6-33.6c3.1-3.1,8.2-3.1,11.3,0c3.1,3.1,3.1,8.2,0,11.3l-33.6,33.6
		C66.6,343.8,61.6,343.8,58.4,340.6z"/>
        </g>
    </symbol>

</svg>