<svg xmlns="http://www.w3.org/2000/svg" width="36" height="33" viewBox="0 0 36 33">
  <g fill="#0094F8">
    <path d="M13.176255 16.305114C11.7834333 13.7205903 10.4143707 13.9892557 9.35171192 14.604996 8.12171901 15.425388 7.66353719 16.2724293 8.5017804 18.4302616 10.4312869 23.1684694 13.3929351 28.8135074 16.5758961 32.4562357L28.0496104 32.4562357C32.0825455 29.4680656 35.3273908 15.2580963 29.7493884 14.604996 29.2378229 14.604996 28.4190035 14.6870267 28.0496104 15.0300255 28.0496104 13.3299074 26.5663849 12.8942947 25.9248453 12.9048779 25.1888217 12.9172038 24.6498843 13.3299074 24.2250248 14.1799665 24.2250248 12.4798484 22.838791 12.0548189 22.1002597 12.0548189 21.2872208 12.0548189 20.3447603 12.5621341 19.9754947 13.3299074L19.9754947 4.4042366C19.9754947 2.99143849 18.8383282 1.8540595 17.4257851 1.8540595 16.013242 1.8540595 14.8760756 2.99143849 14.8760756 4.4042366L14.8760756 19.7053502 13.176255 16.305114zM35.2775348 4.67715605C35.2686092 4.46325145 35.2240661 4.24979313 35.0384557 4.0794838L31.2131901.254371166C30.8959906-.082154454 30.319778-.081117382 29.9993483.235797376 29.6789185.552699383 29.6813837 1.13556786 30.0044486 1.44972843L32.3819362 3.82713102 24.2266824 3.82713102C23.7571948 3.82713102 23.3766234 4.2076897 23.3766234 4.67715605 23.3766234 5.14662666 23.7571948 5.52718108 24.2266824 5.52718108L32.3819362 5.52718108 30.0044486 7.90459643C29.6812987 8.218757 29.6788335 8.80162973 29.9993483 9.11853173 30.3198205 9.43543374 30.902621 9.42650812 31.2132326 9.09995794L35.0384982 5.27484531C35.215183 5.0953766 35.2704368 4.90988947 35.2775773 4.67715605L35.2775348 4.67715605z"/>
    <path d="M11.9009115,4.67715605 C11.8919858,4.46325145 11.8474427,4.24979313 11.6618323,4.0794838 L7.83656671,0.254371166 C7.51936718,-0.082154454 6.94315466,-0.081117382 6.62272491,0.235797376 C6.30229516,0.552699383 6.30476033,1.13556786 6.62782527,1.44972843 L9.00531287,3.82713102 L0.850059032,3.82713102 C0.380571429,3.82713102 0,4.2076897 0,4.67715605 C0,5.14662666 0.380571429,5.52718108 0.850059032,5.52718108 L9.00531287,5.52718108 L6.62782527,7.90459643 C6.30467532,8.218757 6.30221015,8.80162973 6.62272491,9.11853173 C6.94319717,9.43543374 7.52599764,9.42650812 7.83660921,9.09995794 L11.6618749,5.27484531 C11.8385596,5.0953766 11.8938135,4.90988947 11.900954,4.67715605 L11.9009115,4.67715605 Z" transform="matrix(-1 0 0 1 11.901 0)"/>
  </g>
</svg>
