<?xml version="1.0" standalone="no"?>
<!DOCTYPE svg PUBLIC "-//W3C//DTD SVG 20010904//EN"
 "http://www.w3.org/TR/2001/REC-SVG-20010904/DTD/svg10.dtd">
<svg version="1.0" xmlns="http://www.w3.org/2000/svg"
 width="1024.000000pt" height="1024.000000pt" viewBox="0 0 1024.000000 1024.000000"
 preserveAspectRatio="xMidYMid meet">
<metadata>
Created by potrace 1.11, written by Peter Selinger 2001-2013
</metadata>
<g transform="translate(0.000000,1024.000000) scale(0.100000,-0.100000)"
fill="#000000" stroke="none">
<path d="M487 9584 c-165 -40 -308 -151 -384 -300 -26 -51 -55 -143 -48 -155
3 -4 1 -10 -4 -14 -6 -3 -9 -21 -7 -40 1 -19 -2 -35 -8 -35 -6 0 -6 -4 1 -11
8 -8 8 -20 3 -35 -6 -14 -5 -26 1 -29 5 -4 7 -11 3 -16 -8 -13 -9 -107 -1
-115 3 -3 2 -17 -3 -30 -6 -16 -6 -24 1 -24 6 0 6 -7 2 -17 -7 -16 -9 -47 -3
-65 6 -18 5 -35 -1 -65 -4 -18 -4 -35 -1 -38 8 -8 10 -45 2 -45 -8 0 -5 -44 5
-59 3 -6 1 -11 -5 -11 -7 0 -8 -6 -1 -18 6 -11 6 -33 1 -55 -4 -21 -4 -39 0
-42 4 -3 4 -21 0 -40 -4 -19 -5 -35 -1 -35 3 0 6 -27 6 -60 0 -33 -4 -60 -8
-60 -5 0 -5 -5 -1 -11 4 -6 6 -41 5 -78 -2 -81 -2 -80 2 -111 2 -14 0 -37 -4
-52 -4 -16 -4 -28 0 -28 4 0 6 -19 4 -42 -3 -56 -3 -73 -1 -206 2 -61 -1 -112
-5 -112 -5 0 -5 -5 -1 -11 10 -17 11 -229 1 -229 -5 0 -5 -5 -1 -11 9 -16 11
-180 1 -186 -4 -2 -4 -9 -1 -15 9 -14 9 -582 0 -596 -3 -6 -3 -13 1 -15 10 -6
9 -89 -1 -105 -3 -6 -3 -13 2 -16 9 -5 8 -89 -2 -104 -3 -6 -3 -13 2 -16 9 -5
8 -89 -2 -104 -3 -6 -3 -13 2 -16 9 -5 7 -99 -2 -115 -4 -5 -3 -12 2 -15 4 -2
7 -22 6 -43 -4 -76 -5 -98 -1 -123 1 -14 0 -37 -4 -52 -4 -16 -4 -28 0 -28 9
0 6 -54 -4 -69 -3 -6 -3 -11 2 -11 9 0 8 -132 -1 -155 -3 -8 -2 -15 2 -15 8 0
7 -83 -2 -105 -3 -8 -1 -17 3 -20 5 -3 6 -20 2 -37 -4 -18 -5 -46 -1 -63 3
-16 3 -43 0 -60 -3 -16 -3 -50 1 -75 4 -25 4 -47 0 -50 -5 -4 -6 -27 -1 -40 5
-14 5 -80 0 -80 -4 0 -6 -10 -4 -22 1 -13 3 -23 4 -23 1 0 2 -17 4 -37 2 -21
0 -35 -4 -33 -8 5 -4 -50 5 -64 3 -6 1 -11 -5 -11 -7 0 -8 -7 -3 -17 8 -18 8
-48 0 -88 -3 -11 -1 -27 3 -35 5 -8 5 -34 0 -58 -4 -23 -4 -45 1 -48 4 -2 4
-15 -1 -28 -5 -15 -5 -27 2 -34 6 -6 6 -12 0 -16 -7 -4 -7 -17 -2 -34 4 -16 4
-36 -2 -45 -6 -11 -5 -17 2 -17 7 0 8 -6 1 -18 -5 -10 -6 -24 -1 -31 4 -8 4
-27 0 -42 -5 -17 -5 -31 1 -35 5 -3 6 -11 2 -17 -9 -15 -9 -49 0 -65 5 -6 3
-21 -3 -33 -8 -13 -8 -25 -2 -31 5 -5 6 -26 2 -49 -4 -22 -3 -39 2 -39 5 0 5
-6 0 -16 -5 -9 -6 -34 -2 -55 4 -21 4 -39 1 -39 -8 0 -5 -69 3 -77 3 -3 1 -14
-4 -24 -7 -11 -7 -20 0 -24 6 -3 6 -15 0 -30 -6 -15 -6 -27 0 -30 5 -3 7 -12
4 -20 -7 -18 -11 -115 -5 -120 8 -9 6 -63 -3 -58 -4 3 -5 -5 -1 -18 4 -13 8
-45 8 -71 0 -26 3 -48 7 -48 4 0 32 37 63 83 114 168 135 196 141 190 3 -4 6
1 6 10 0 9 5 17 10 17 6 0 10 4 10 10 0 10 26 44 63 82 9 10 17 20 17 23 0 10
134 151 216 226 47 43 154 125 209 160 72 47 145 89 158 92 6 1 18 8 25 15 8
7 18 10 23 7 5 -4 9 -2 9 3 0 7 70 41 100 48 3 0 19 6 35 13 43 18 122 46 180
64 47 15 68 20 133 32 15 3 34 8 42 11 8 3 29 7 45 10 17 2 41 6 55 9 39 7
122 18 148 19 12 0 22 2 22 6 0 10 451 16 560 6 117 -10 164 -15 215 -25 27
-5 53 -7 57 -5 5 3 8 2 8 -3 0 -4 12 -8 28 -9 32 0 63 -6 152 -29 36 -8 74
-18 84 -20 29 -7 88 -25 111 -35 11 -4 52 -20 90 -35 105 -40 274 -135 370
-208 68 -51 196 -176 255 -247 25 -30 49 -58 55 -62 5 -4 6 -8 2 -8 -4 0 4
-11 18 -25 14 -14 25 -32 25 -40 0 -8 4 -15 8 -15 5 0 17 -16 28 -35 10 -19
22 -35 26 -35 5 0 8 -4 8 -9 0 -6 24 -49 53 -98 30 -48 64 -108 78 -133 13
-25 26 -47 29 -50 3 -3 11 -17 17 -33 16 -36 35 -34 57 6 24 40 167 242 201
282 84 99 107 125 175 194 86 88 253 231 269 231 6 0 11 4 11 8 0 4 15 16 33
27 17 10 38 25 45 32 7 7 20 13 28 13 8 0 14 4 14 9 0 4 22 19 50 32 28 13 50
27 50 31 0 5 6 8 13 8 6 0 37 13 68 30 31 16 80 38 110 50 30 11 63 25 74 30
18 8 180 62 198 66 4 1 8 3 10 4 1 1 11 4 22 6 11 1 29 5 40 8 113 28 195 46
202 45 4 -1 10 0 13 1 11 4 47 10 80 14 19 2 35 5 35 6 0 0 23 3 50 6 90 9
101 10 110 16 13 7 477 2 535 -6 25 -3 59 -8 75 -11 17 -2 48 -7 70 -10 22 -4
51 -9 65 -11 14 -3 34 -7 45 -9 11 -1 46 -10 78 -18 31 -8 57 -13 57 -10 0 3
6 1 13 -5 7 -6 24 -13 37 -16 100 -19 310 -107 465 -196 48 -27 201 -128 218
-144 7 -6 33 -27 57 -46 69 -53 159 -140 270 -260 8 -9 33 -38 55 -65 22 -28
48 -59 57 -69 10 -11 18 -25 18 -32 0 -7 4 -14 9 -16 12 -4 94 -133 141 -222
91 -172 180 -432 195 -571 2 -22 6 -51 9 -65 2 -14 7 -52 11 -85 3 -33 8 -69
11 -80 2 -11 6 -54 9 -95 3 -41 8 -106 11 -145 6 -74 9 -131 20 -340 4 -71 7
-392 8 -713 1 -506 3 -584 16 -592 9 -7 232 -9 605 -6 591 4 625 5 625 16 0 4
6 7 13 8 83 7 238 113 304 207 42 60 78 137 89 190 1 6 5 24 9 40 3 17 6 36 6
43 -2 26 -2 40 0 133 1 53 -1 101 -5 108 -4 6 -2 11 4 11 7 0 8 6 1 17 -5 9
-5 26 -1 38 5 12 4 28 0 35 -5 8 -6 18 -3 23 8 13 7 183 -1 196 -4 6 -2 11 4
11 7 0 8 6 1 17 -5 9 -5 26 -1 38 5 12 4 28 0 35 -5 8 -6 18 -3 23 8 13 7 183
-1 196 -4 6 -2 11 4 11 7 0 8 6 1 17 -5 9 -5 26 -1 38 5 12 4 28 0 35 -5 8 -6
18 -3 23 8 13 7 183 -1 196 -4 6 -2 11 4 11 7 0 8 6 1 17 -5 9 -5 26 -1 38 5
12 4 28 0 35 -5 8 -6 18 -3 23 8 13 7 183 -1 196 -4 6 -2 11 4 11 7 0 8 6 1
17 -5 9 -5 26 -1 38 5 12 4 28 0 35 -5 8 -6 18 -3 23 8 13 7 183 -1 196 -4 6
-2 11 4 11 7 0 8 6 1 17 -5 9 -5 26 -1 38 5 12 4 28 0 35 -5 8 -6 18 -3 23 8
13 7 183 -1 196 -4 6 -2 11 4 11 7 0 8 6 1 17 -5 9 -5 26 -1 38 5 12 4 28 0
35 -5 8 -6 18 -3 23 8 13 7 183 -1 196 -4 6 -2 11 4 11 7 0 8 6 1 17 -5 9 -5
26 -1 38 5 12 4 28 0 35 -5 8 -6 18 -3 23 8 13 7 183 -1 196 -4 6 -2 11 4 11
7 0 8 6 1 17 -5 9 -5 26 -1 38 5 12 4 28 0 35 -5 8 -6 18 -3 23 8 13 7 183 -1
196 -4 6 -2 11 4 11 7 0 8 6 1 17 -5 9 -5 26 -1 38 5 12 4 28 0 35 -5 8 -6 18
-3 23 8 13 7 183 -1 196 -4 6 -2 11 4 11 7 0 8 6 1 17 -5 9 -5 26 -1 38 5 12
4 28 0 35 -5 8 -6 18 -3 23 8 13 7 183 -1 196 -4 6 -2 11 4 11 7 0 8 6 1 17
-5 9 -5 26 -1 38 5 12 4 28 0 35 -5 8 -6 18 -3 23 8 13 7 183 -1 196 -4 6 -2
11 4 11 7 0 8 6 1 17 -5 9 -5 26 -1 38 5 12 4 28 0 35 -5 8 -6 18 -3 23 8 13
7 183 -1 196 -4 6 -2 11 4 11 7 0 8 6 1 17 -5 9 -5 26 -1 38 5 12 4 28 0 35
-5 8 -6 18 -3 23 8 13 7 183 -1 196 -4 6 -2 11 4 11 7 0 8 6 1 17 -5 9 -5 26
-1 38 5 12 4 28 0 35 -5 8 -6 18 -3 23 8 13 7 183 -1 196 -4 6 -2 11 4 11 7 0
8 6 1 17 -5 9 -5 26 -1 38 5 12 4 28 0 35 -5 8 -6 18 -3 23 8 13 7 183 -1 196
-4 6 -2 11 4 11 7 0 8 6 1 17 -5 9 -5 26 -1 38 5 12 4 28 0 35 -5 8 -6 18 -3
23 8 13 7 183 -1 196 -4 6 -2 11 4 11 7 0 8 6 1 17 -5 9 -5 26 -1 38 5 12 4
28 0 35 -5 8 -6 18 -3 23 8 13 7 183 -1 196 -4 6 -2 11 4 11 7 0 8 6 1 17 -5
9 -5 26 -1 38 5 12 4 28 0 35 -5 8 -6 18 -3 23 8 13 7 183 -1 196 -4 6 -2 11
4 11 7 0 8 6 1 17 -5 9 -5 26 -1 38 5 12 4 28 0 35 -5 8 -6 18 -3 23 8 13 7
183 -1 196 -4 6 -2 11 4 11 7 0 8 6 1 17 -5 9 -5 26 -1 38 5 12 4 28 0 35 -5
8 -6 18 -3 23 8 13 7 183 -1 196 -4 6 -2 11 4 11 7 0 8 6 1 17 -5 9 -5 26 -1
38 5 12 4 28 0 35 -5 8 -6 18 -3 23 8 13 7 183 -1 196 -4 6 -2 11 4 11 7 0 8
6 1 17 -5 9 -5 26 -1 38 5 12 4 28 0 35 -5 8 -6 18 -3 23 8 13 7 183 -1 196
-4 6 -2 11 4 11 7 0 8 6 1 17 -5 9 -5 26 -1 38 5 12 4 28 0 35 -5 8 -6 18 -3
23 3 4 4 38 4 75 -1 37 -1 81 0 97 1 38 1 45 -4 75 -14 77 -20 98 -48 154 -79
159 -198 258 -369 305 l-74 21 -4580 -1 c-3890 -1 -4590 -3 -4639 -15z m8685
-1760 c20 -9 40 -24 44 -33 10 -21 13 -1831 3 -1831 -4 0 -5 -8 -2 -19 7 -26
-57 -89 -88 -86 -55 3 -82 26 -96 79 -3 11 -7 421 -8 911 -1 639 2 898 10 922
23 67 70 87 137 57z"/>
<path d="M5330 2880 c0 -3 -8 -6 -17 -6 -17 -1 -74 -10 -121 -19 -114 -22
-312 -104 -389 -162 -21 -15 -44 -32 -51 -38 -25 -18 -127 -121 -164 -166 -33
-39 -142 -212 -144 -228 0 -3 -10 -26 -21 -51 -18 -40 -35 -85 -38 -100 -1 -3
-9 -32 -19 -65 -10 -33 -20 -69 -22 -80 -2 -11 -6 -31 -9 -45 -27 -144 -36
-348 -38 -872 0 -214 3 -391 6 -395 4 -4 514 -7 1133 -7 1117 -1 1125 -1 1129
19 4 20 0 1190 -4 1190 -1 0 -4 29 -6 65 -5 64 -31 220 -42 250 -4 8 -5 20 -4
27 1 6 -3 14 -9 18 -5 3 -10 15 -10 26 0 10 -4 27 -9 37 -5 9 -19 42 -32 72
-26 62 -79 153 -91 158 -4 2 -8 10 -8 17 0 18 -153 172 -179 180 -12 3 -21 11
-21 16 0 5 -7 9 -15 9 -8 0 -15 5 -15 10 0 6 -7 10 -15 10 -8 0 -15 5 -15 10
0 6 -5 10 -11 10 -5 0 -31 9 -56 21 -39 18 -142 52 -150 51 -2 0 -17 4 -35 9
-18 5 -51 12 -73 15 -22 3 -51 8 -65 11 -33 8 -370 10 -370 3z"/>
<path d="M1148 2855 c-3 -2 -32 -6 -148 -20 -19 -2 -62 -11 -95 -21 -33 -9
-67 -17 -75 -18 -9 -1 -20 -5 -25 -8 -6 -3 -28 -11 -50 -18 -82 -26 -221 -104
-281 -156 -12 -11 -36 -33 -55 -49 -105 -93 -219 -301 -254 -465 -52 -245 -58
-323 -59 -803 -1 -298 1 -349 14 -357 8 -5 11 -10 7 -10 -33 0 174 -220 212
-226 3 0 28 -10 54 -22 27 -12 60 -25 75 -29 15 -4 453 -9 973 -10 l947 -4 2
203 c3 315 2 490 -5 611 -17 294 -24 399 -30 426 -2 13 -7 47 -10 75 -5 46 -9
80 -19 141 -2 11 -6 31 -10 45 -3 14 -8 36 -10 50 -2 14 -9 37 -15 53 -6 15
-7 27 -4 27 4 0 2 5 -5 12 -7 7 -12 18 -12 25 0 32 -79 176 -128 234 -76 89
-139 141 -245 198 -59 32 -197 84 -213 80 -5 -1 -16 0 -24 4 -23 9 -72 19
-110 23 -42 5 -398 13 -402 9z"/>
</g>
</svg>
